<svg width="48" height="50" viewBox="0 0 48 50" fill="none" xmlns="http://www.w3.org/2000/svg">
<g filter="url(#filter0_d_557_2935)">
<g clip-path="url(#clip0_557_2935)">
<path d="M22.5464 22.2909V1.1732C22.5464 0.862051 22.6742 0.563642 22.9015 0.343623C23.1289 0.123605 23.4372 0 23.7588 0L24.6195 0C24.9411 0 25.2494 0.123605 25.4768 0.343623C25.7041 0.563642 25.8319 0.862051 25.8319 1.1732V22.2909C25.8319 22.602 25.7041 22.9004 25.4768 23.1205C25.2494 23.3405 24.9411 23.4641 24.6195 23.4641H23.7467C23.4272 23.461 23.122 23.336 22.8972 23.1163C22.6725 22.8966 22.5464 22.6 22.5464 22.2909ZM34.8274 8.31801C34.6213 8.20068 34.3933 8.12384 34.1564 8.09189C33.9196 8.05994 33.6786 8.0735 33.4472 8.1318C33.2158 8.1901 32.9985 8.292 32.8078 8.43165C32.6172 8.57131 32.4568 8.74598 32.336 8.94568C32.1028 9.35168 32.0406 9.8292 32.1626 10.2785C32.2846 10.7278 32.5813 11.114 32.9907 11.3566C35.219 12.8859 36.9846 14.9637 38.1047 17.375C39.2248 19.7863 39.6587 22.4434 39.3615 25.0714C39.3615 25.1242 39.2887 25.4937 39.2766 25.5758C39.216 25.8809 39.1493 26.1624 39.0705 26.4909C38.925 27.0775 38.7432 27.6641 38.5371 28.2038C38.3684 28.6612 38.1659 29.1062 37.9309 29.5354C37.6439 30.1113 37.3242 30.6714 36.9732 31.2131C35.728 33.1432 34.0602 34.7852 32.0875 36.0232C30.0029 37.2988 27.6265 38.0594 25.167 38.2384C22.7076 38.4174 20.2403 38.0093 17.982 37.0498C15.5053 35.9847 13.364 34.3042 11.7757 32.179C10.1874 30.0538 9.20864 27.5596 8.93896 24.9498C8.66928 22.3401 9.11824 19.7077 10.2402 17.3202C11.3622 14.9327 13.1172 12.8752 15.327 11.3566C15.7331 11.1111 16.0265 10.7244 16.1472 10.2761C16.2678 9.82769 16.2064 9.35163 15.9756 8.94568C15.7316 8.54396 15.333 8.25229 14.8671 8.13462C14.4012 8.01696 13.9061 8.08291 13.4903 8.31801C7.98028 12.1075 4.61606 18.6011 5.31315 25.2239C5.61465 28.0886 6.60082 30.8462 8.19364 33.2784C9.78647 35.7107 11.9423 37.7509 14.4905 39.2378C17.1448 40.757 20.1437 41.623 23.2242 41.76C26.3048 41.8971 29.3731 41.3009 32.1602 40.0238C34.7661 38.7663 37.0543 36.9693 38.8623 34.7603C40.6704 32.5514 41.9542 29.9845 42.6227 27.2418C44.3684 19.9914 41.0224 12.565 34.8274 8.31801Z" fill="white"/>
</g>
</g>
<defs>
<filter id="filter0_d_557_2935" x="-4" y="0" width="55" height="55" filterUnits="userSpaceOnUse" color-interpolation-filters="sRGB">
<feFlood flood-opacity="0" result="BackgroundImageFix"/>
<feColorMatrix in="SourceAlpha" type="matrix" values="0 0 0 0 0 0 0 0 0 0 0 0 0 0 0 0 0 0 127 0" result="hardAlpha"/>
<feOffset dy="4"/>
<feGaussianBlur stdDeviation="2"/>
<feComposite in2="hardAlpha" operator="out"/>
<feColorMatrix type="matrix" values="0 0 0 0 0 0 0 0 0 0 0 0 0 0 0 0 0 0 0.25 0"/>
<feBlend mode="normal" in2="BackgroundImageFix" result="effect1_dropShadow_557_2935"/>
<feBlend mode="normal" in="SourceGraphic" in2="effect1_dropShadow_557_2935" result="shape"/>
</filter>
<clipPath id="clip0_557_2935">
<rect width="37.8611" height="41.7778" fill="white" transform="translate(5.22217)"/>
</clipPath>
</defs>
</svg>
