<svg width="43" height="41" viewBox="0 0 43 41" fill="none" xmlns="http://www.w3.org/2000/svg">
<g filter="url(#filter0_d_557_2940)">
<path d="M35.774 25.1663C34.4569 27.3223 32.649 29.1453 30.4937 30.4909C28.3385 31.8365 25.8953 32.6674 23.358 32.9178C17.5106 33.5173 11.8033 30.6687 8.42564 25.9912C8.21769 25.6398 8.15935 25.2213 8.26343 24.8276C8.3675 24.4338 8.62549 24.0968 8.9808 23.8906C9.33986 23.6956 9.76093 23.6437 10.1575 23.7456C10.5541 23.8476 10.8961 24.0956 11.1133 24.4388C12.6678 26.5793 14.8366 28.2104 17.3394 29.1215C20.4654 30.2629 23.915 30.1815 26.9822 28.8938C30.0494 27.6061 32.5023 25.2097 33.8387 22.1948C34.6878 20.2853 35.0491 18.1991 34.8908 16.1195C34.7325 14.0399 34.0594 12.0305 32.9307 10.2678C31.8293 8.61226 30.3756 7.21361 28.671 6.16921C28.1914 5.87177 27.6961 5.59984 27.1871 5.3546C26.8077 5.16294 26.4139 5.00022 26.0093 4.86789C25.5135 4.68907 25.0076 4.53854 24.4943 4.41704C24.2297 4.35044 23.9755 4.29409 23.6901 4.24285L23.2439 4.17113C21.0479 3.93115 18.8262 4.24411 16.7858 5.08083C14.7454 5.91756 12.9528 7.2508 11.575 8.95627L14.0811 11.4308C14.1412 11.4947 14.1839 11.5728 14.2049 11.6576C14.226 11.7423 14.2247 11.831 14.2013 11.9151C14.178 11.9993 14.1332 12.0762 14.0713 12.1385C14.0094 12.2007 13.9324 12.2464 13.8476 12.271L4.67957 14.6892C4.58986 14.7181 4.49388 14.7222 4.40196 14.7012C4.31004 14.6803 4.22565 14.6349 4.15788 14.5701C4.09011 14.5053 4.04152 14.4235 4.01734 14.3334C3.99315 14.2434 3.99429 14.1485 4.02063 14.0591L6.49553 5.00622C6.51863 4.91858 6.56485 4.83856 6.62947 4.7743C6.69409 4.71004 6.77481 4.66384 6.8634 4.64041C6.95198 4.61698 7.04528 4.61715 7.13378 4.64091C7.22228 4.66467 7.30282 4.71117 7.36719 4.77567L9.3855 6.76863C13.2405 2.32162 19.2436 0.0315174 25.1636 1.38919C27.5882 1.95402 29.8575 3.03788 31.8111 4.56413C33.7647 6.09038 35.3549 8.02176 36.4693 10.2217C37.6007 12.5787 38.1289 15.1739 38.0077 17.7796C37.8865 20.3852 37.1195 22.9216 35.774 25.1663Z" fill="white"/>
</g>
<defs>
<filter id="filter0_d_557_2940" x="0" y="0" width="43" height="42" filterUnits="userSpaceOnUse" color-interpolation-filters="sRGB">
<feFlood flood-opacity="0" result="BackgroundImageFix"/>
<feColorMatrix in="SourceAlpha" type="matrix" values="0 0 0 0 0 0 0 0 0 0 0 0 0 0 0 0 0 0 127 0" result="hardAlpha"/>
<feOffset dy="4"/>
<feGaussianBlur stdDeviation="2"/>
<feComposite in2="hardAlpha" operator="out"/>
<feColorMatrix type="matrix" values="0 0 0 0 0 0 0 0 0 0 0 0 0 0 0 0 0 0 0.25 0"/>
<feBlend mode="normal" in2="BackgroundImageFix" result="effect1_dropShadow_557_2940"/>
<feBlend mode="normal" in="SourceGraphic" in2="effect1_dropShadow_557_2940" result="shape"/>
</filter>
</defs>
</svg>
