<svg width="23" height="23" viewBox="0 0 23 23" fill="none" xmlns="http://www.w3.org/2000/svg">
<g clip-path="url(#clip0_557_7856)">
<path d="M11.5 0.955745C13.5855 0.955745 15.6241 1.57415 17.3581 2.73277C19.0921 3.89139 20.4436 5.53818 21.2416 7.46489C22.0397 9.3916 22.2485 11.5117 21.8417 13.5571C21.4348 15.6025 20.4306 17.4813 18.9559 18.9559C17.4813 20.4306 15.6025 21.4348 13.5571 21.8417C11.5117 22.2485 9.3916 22.0397 7.46489 21.2416C5.53818 20.4436 3.8914 19.0921 2.73278 17.3581C1.57416 15.6241 0.95575 13.5855 0.95575 11.5C0.958912 8.70446 2.07084 6.02432 4.04758 4.04758C6.02433 2.07083 8.70447 0.958907 11.5 0.955745ZM11.5 0C9.22552 0 7.00211 0.674463 5.11095 1.9381C3.21978 3.20174 1.7458 4.99779 0.875391 7.09914C0.00498278 9.20049 -0.222756 11.5128 0.220974 13.7435C0.664705 15.9743 1.75997 18.0234 3.36828 19.6317C4.97658 21.24 7.02569 22.3353 9.25647 22.779C11.4872 23.2228 13.7995 22.995 15.9009 22.1246C18.0022 21.2542 19.7983 19.7802 21.0619 17.8891C22.3255 15.9979 23 13.7745 23 11.5C23 8.45001 21.7884 5.52494 19.6317 3.36827C17.4751 1.2116 14.55 0 11.5 0ZM17.9202 11.5C17.9202 11.3733 17.8699 11.2517 17.7803 11.1621C17.6906 11.0725 17.5691 11.0221 17.4424 11.0221H12.0209V4.17422C12.0209 4.04748 11.9705 3.92593 11.8809 3.83631C11.7913 3.74669 11.6698 3.69634 11.543 3.69634C11.4163 3.69634 11.2947 3.74669 11.2051 3.83631C11.1155 3.92593 11.0651 4.04748 11.0651 4.17422V11.5C11.0651 11.6267 11.1155 11.7483 11.2051 11.8379C11.2947 11.9275 11.4163 11.9779 11.543 11.9779H17.4424C17.5691 11.9779 17.6906 11.9275 17.7803 11.8379C17.8699 11.7483 17.9202 11.6267 17.9202 11.5Z" fill="white"/>
</g>
<defs>
<clipPath id="clip0_557_7856">
<rect width="23" height="23" fill="white"/>
</clipPath>
</defs>
</svg>
