<svg width="57" height="47" viewBox="0 0 57 47" fill="none" xmlns="http://www.w3.org/2000/svg">
<g clip-path="url(#clip0_557_1831)" filter="url(#filter0_d_557_1831)">
<path d="M52.1837 22.6745C52.1527 22.8883 52.0346 23.0822 51.8544 23.2149C51.6743 23.3476 51.4464 23.4087 51.2193 23.385C50.1388 23.2641 44.5045 22.8522 39.9747 26.8429C39.9421 26.8686 39.9113 26.8964 39.8826 26.926C35.3368 30.9998 35.4808 36.3737 35.5569 37.4356C35.5573 37.6465 35.4728 37.8497 35.3205 38.004C35.1682 38.1583 34.9595 38.2522 34.7367 38.2666C34.5138 38.281 34.2935 38.2149 34.1204 38.0816C33.9473 37.9484 33.8342 37.758 33.8042 37.549C33.7201 36.3737 33.5601 30.3083 38.6742 25.7243C38.7068 25.6909 38.7416 25.6593 38.7782 25.6298C43.8763 21.1402 50.2109 21.6013 51.4314 21.7411C51.5458 21.7555 51.656 21.7911 51.7558 21.8459C51.8556 21.9007 51.943 21.9735 52.0129 22.0602C52.0828 22.147 52.1338 22.2459 52.1632 22.3513C52.1925 22.4567 52.1994 22.5666 52.1837 22.6745ZM52.2517 0.310012C49.3465 -0.101907 34.2443 -1.60976 22.0634 9.16437C9.65831 20.1237 10.4906 34.6995 10.7828 37.5074C10.7923 37.6169 10.8248 37.7236 10.8785 37.8211C10.9321 37.9186 11.0058 38.0051 11.0952 38.0755C11.1846 38.1458 11.2879 38.1987 11.3992 38.2309C11.5104 38.2631 11.6274 38.2741 11.7432 38.2632C11.937 38.2462 12.119 38.1676 12.2594 38.0402C12.3561 37.9537 12.4306 37.8474 12.477 37.7295C12.5235 37.6116 12.5408 37.4852 12.5275 37.36C12.2514 34.7147 11.471 20.9664 23.0878 10.5475L23.2639 10.3888C34.8566 0.121058 49.2185 1.5571 51.9916 1.95013C52.2219 1.9827 52.4565 1.92754 52.6437 1.79679C52.8309 1.66603 52.9555 1.47038 52.99 1.25289C53.0245 1.0354 52.9661 0.813872 52.8276 0.637048C52.6892 0.460224 52.482 0.342586 52.2517 0.310012ZM51.1833 12.694C51.3146 12.7108 51.4482 12.6994 51.5743 12.6608C51.7003 12.6222 51.8156 12.5574 51.9116 12.4711C52.0567 12.3439 52.1501 12.1727 52.1757 11.9873C52.192 11.8798 52.1857 11.7704 52.1572 11.6652C52.1286 11.56 52.0782 11.4612 52.0091 11.3744C51.9399 11.2877 51.8532 11.2147 51.7541 11.1597C51.655 11.1047 51.5453 11.0687 51.4314 11.0539C49.4025 10.778 38.8662 9.79925 30.3508 17.2591L30.1267 17.4556C21.5832 25.1234 22.0714 35.2475 22.2595 37.2164C22.2801 37.4354 22.3921 37.6377 22.5707 37.7787C22.7493 37.9197 22.9799 37.988 23.2118 37.9684C23.4437 37.9489 23.6579 37.8432 23.8072 37.6745C23.9566 37.5058 24.0289 37.288 24.0082 37.069C23.8321 35.2173 23.3759 25.6525 31.5432 18.476C39.4745 11.5263 49.2945 12.4408 51.1833 12.694ZM45.3289 32.64C44.7681 33.142 44.3777 33.7898 44.2069 34.5014C44.0361 35.213 44.0927 35.9565 44.3694 36.6377C44.6461 37.319 45.1306 37.9074 45.7616 38.3286C46.3925 38.7498 47.1416 38.9847 47.914 39.0038C48.6863 39.0228 49.4473 38.8251 50.1007 38.4356C50.7541 38.0461 51.2704 37.4823 51.5844 36.8156C51.8984 36.1489 51.996 35.4092 51.8647 34.6902C51.7335 33.9711 51.3793 33.305 50.8471 32.776C50.1331 32.0692 49.1518 31.6582 48.1177 31.6327C47.0837 31.6072 46.081 31.9693 45.3289 32.64ZM12.9837 13.9298H6.02883C5.49107 13.9288 4.97565 13.7266 4.5954 13.3675C4.21515 13.0084 4.00106 12.5216 4 12.0138V7.74722C4.00106 7.23938 4.21515 6.75262 4.5954 6.39352C4.97565 6.03441 5.49107 5.83223 6.02883 5.83123H6.33295V2.83443C6.33823 2.13612 6.63568 1.46811 7.16043 0.976089C7.68517 0.484069 8.39464 0.207959 9.1341 0.207977H9.96243C10.7012 0.213957 11.4075 0.4953 11.9276 0.990753C12.4478 1.48621 12.7396 2.15565 12.7396 2.85333V5.85013H12.9837C13.5217 5.85013 14.0378 6.05199 14.4183 6.41131C14.7987 6.77062 15.0125 7.25796 15.0125 7.76612V12.0138C15.0125 12.5219 14.7987 13.0093 14.4183 13.3686C14.0378 13.7279 13.5217 13.9298 12.9837 13.9298ZM7.93361 5.52135H11.1349V2.83443C11.1298 2.54156 11.0049 2.26191 10.7863 2.05409C10.5678 1.84627 10.2725 1.7264 9.96243 1.7196H9.11409C8.79918 1.72456 8.49894 1.84619 8.27812 2.05827C8.05729 2.27035 7.93356 2.55589 7.93361 2.85333V5.52135ZM6.02883 12.4181H12.9837C13.0972 12.4181 13.2061 12.3755 13.2864 12.2997C13.3667 12.2239 13.4118 12.121 13.4118 12.0138V7.74722C13.4118 7.63998 13.3667 7.53713 13.2864 7.46129C13.2061 7.38546 13.0972 7.34286 12.9837 7.34286H6.02883C5.91527 7.34286 5.80636 7.38546 5.72606 7.46129C5.64576 7.53713 5.60065 7.63998 5.60065 7.74722V12.0138C5.60065 12.121 5.64576 12.2239 5.72606 12.2997C5.80636 12.3755 5.91527 12.4181 6.02883 12.4181Z" fill="white"/>
</g>
<defs>
<filter id="filter0_d_557_1831" x="0" y="0" width="57" height="47" filterUnits="userSpaceOnUse" color-interpolation-filters="sRGB">
<feFlood flood-opacity="0" result="BackgroundImageFix"/>
<feColorMatrix in="SourceAlpha" type="matrix" values="0 0 0 0 0 0 0 0 0 0 0 0 0 0 0 0 0 0 127 0" result="hardAlpha"/>
<feOffset dy="4"/>
<feGaussianBlur stdDeviation="2"/>
<feComposite in2="hardAlpha" operator="out"/>
<feColorMatrix type="matrix" values="0 0 0 0 0 0 0 0 0 0 0 0 0 0 0 0 0 0 0.25 0"/>
<feBlend mode="normal" in2="BackgroundImageFix" result="effect1_dropShadow_557_1831"/>
<feBlend mode="normal" in="SourceGraphic" in2="effect1_dropShadow_557_1831" result="shape"/>
</filter>
<clipPath id="clip0_557_1831">
<rect width="49" height="39" fill="white" transform="translate(4)"/>
</clipPath>
</defs>
</svg>
