<svg width="55" height="50" viewBox="0 0 55 50" fill="none" xmlns="http://www.w3.org/2000/svg">
<path d="M14.4776 15.2423H23.4395C23.5632 16.1651 24.0155 17.0117 24.7127 17.6257C25.4099 18.2397 26.3049 18.5795 27.2322 18.5824C28.1596 18.5852 29.0566 18.2509 29.7575 17.6412C30.4584 17.0315 30.9158 16.1877 31.0452 15.2657H43.136C43.2001 15.27 43.2644 15.2611 43.3249 15.2394C43.3854 15.2177 43.4409 15.1838 43.4878 15.1398C43.5347 15.0957 43.5721 15.0425 43.5977 14.9833C43.6233 14.9241 43.6365 14.8603 43.6365 14.7958C43.6365 14.7313 43.6233 14.6675 43.5977 14.6083C43.5721 14.5492 43.5347 14.4959 43.4878 14.4518C43.4409 14.4078 43.3854 14.3739 43.3249 14.3522C43.2644 14.3306 43.2001 14.3216 43.136 14.326H31.0473C30.9205 13.4057 30.4671 12.5624 29.7704 11.9509C29.0738 11.3395 28.1807 11.0012 27.2555 10.9981C26.3302 10.995 25.4349 11.3273 24.7342 11.9341C24.0335 12.5408 23.5745 13.3811 23.4416 14.3005H14.4776C14.416 14.3005 14.355 14.3127 14.2981 14.3364C14.2412 14.36 14.1895 14.3947 14.1459 14.4384C14.1024 14.4822 14.0678 14.5341 14.0442 14.5912C14.0207 14.6483 14.0085 14.7096 14.0085 14.7714C14.0085 14.8333 14.0207 14.8945 14.0442 14.9516C14.0678 15.0088 14.1024 15.0607 14.1459 15.1044C14.1895 15.1481 14.2412 15.1828 14.2981 15.2065C14.355 15.2302 14.416 15.2423 14.4776 15.2423Z" fill="white"/>
<path d="M27.2424 17.6202C28.8327 17.6202 30.1219 16.3485 30.1219 14.7799C30.1219 13.2112 28.8327 11.9396 27.2424 11.9396C25.652 11.9396 24.3628 13.2112 24.3628 14.7799C24.3628 16.3485 25.652 17.6202 27.2424 17.6202Z" fill="white"/>
<path d="M14.4776 25.9141L33.929 25.895C34.0556 26.8174 34.5104 27.6626 35.2094 28.2744C35.9085 28.8862 36.8045 29.2233 37.7318 29.2233C38.6592 29.2233 39.5551 28.8862 40.2542 28.2744C40.9532 27.6626 41.4081 26.8174 41.5346 25.895H43.5311C43.5952 25.8993 43.6595 25.8904 43.72 25.8688C43.7805 25.8471 43.836 25.8132 43.8829 25.7691C43.9298 25.7251 43.9672 25.6718 43.9928 25.6127C44.0184 25.5535 44.0316 25.4897 44.0316 25.4252C44.0316 25.3607 44.0184 25.2969 43.9928 25.2377C43.9672 25.1785 43.9298 25.1253 43.8829 25.0812C43.836 25.0372 43.7805 25.0032 43.72 24.9816C43.6595 24.9599 43.5952 24.951 43.5311 24.9553H41.5389C41.4123 24.0329 40.9575 23.1877 40.2584 22.5759C39.5594 21.9641 38.6634 21.6271 37.736 21.6271C36.8087 21.6271 35.9127 21.9641 35.2137 22.5759C34.5146 23.1877 34.0598 24.0329 33.9332 24.9553L14.4966 24.9744C14.3722 24.9744 14.2529 25.024 14.165 25.1123C14.077 25.2007 14.0276 25.3204 14.0276 25.4453C14.0276 25.5702 14.077 25.69 14.165 25.7783C14.2529 25.8666 14.3722 25.9162 14.4966 25.9162L14.4776 25.9141Z" fill="white"/>
<path d="M37.7275 28.2496C39.3178 28.2496 40.607 26.9779 40.607 25.4093C40.607 23.8406 39.3178 22.569 37.7275 22.569C36.1371 22.569 34.8479 23.8406 34.8479 25.4093C34.8479 26.9779 36.1371 28.2496 37.7275 28.2496Z" fill="white"/>
<path d="M43.4994 34.7574H25.0346C24.9047 33.8376 24.4485 32.9958 23.7498 32.3868C23.0512 31.7777 22.157 31.4424 21.2318 31.4424C20.3065 31.4424 19.4124 31.7777 18.7137 32.3868C18.015 32.9958 17.5588 33.8376 17.429 34.7574H14.4712C14.3468 34.7574 14.2275 34.807 14.1396 34.8954C14.0516 34.9837 14.0022 35.1034 14.0022 35.2283C14.0022 35.3532 14.0516 35.473 14.1396 35.5613C14.2275 35.6496 14.3468 35.6992 14.4712 35.6992H17.429C17.5555 36.6216 18.0103 37.4668 18.7094 38.0786C19.4084 38.6904 20.3044 39.0275 21.2318 39.0275C22.1591 39.0275 23.0551 38.6904 23.7542 38.0786C24.4532 37.4668 24.908 36.6216 25.0346 35.6992H43.5015C43.6259 35.6992 43.7452 35.6496 43.8331 35.5613C43.9211 35.473 43.9705 35.3532 43.9705 35.2283C43.9705 35.1034 43.9211 34.9837 43.8331 34.8954C43.7452 34.807 43.6259 34.7574 43.5015 34.7574H43.4994Z" fill="white"/>
<path d="M21.2319 38.0602C22.8222 38.0602 24.1115 36.7886 24.1115 35.2199C24.1115 33.6513 22.8222 32.3796 21.2319 32.3796C19.6415 32.3796 18.3523 33.6513 18.3523 35.2199C18.3523 36.7886 19.6415 38.0602 21.2319 38.0602Z" fill="white"/>
</svg>
