<svg width="55" height="34" viewBox="0 0 55 34" fill="none" xmlns="http://www.w3.org/2000/svg">
<path d="M18.2314 9.13992C17.9911 9.14091 17.7587 9.22579 17.5746 9.37981C17.4719 9.46552 17.3872 9.57063 17.3254 9.68909C17.2636 9.80755 17.226 9.93702 17.2146 10.07C17.2032 10.2031 17.2184 10.337 17.2591 10.4642C17.2999 10.5913 17.3655 10.7092 17.4522 10.811L27.0885 22.2119C27.1874 22.3177 27.3071 22.402 27.4401 22.4597C27.5731 22.5174 27.7166 22.5471 27.8616 22.5471C28.0067 22.5471 28.1502 22.5174 28.2832 22.4597C28.4162 22.402 28.5359 22.3177 28.6348 22.2119L38.2262 10.8923C38.3879 10.685 38.4629 10.4233 38.4353 10.1621C38.4077 9.90096 38.2798 9.66056 38.0783 9.4913C37.8768 9.32204 37.6174 9.23706 37.3545 9.25418C37.0915 9.27129 36.8454 9.38917 36.6678 9.58311L27.8718 19.9838L19.0107 9.50992C18.9156 9.39543 18.7967 9.30301 18.6621 9.2391C18.5275 9.17519 18.3805 9.14134 18.2314 9.13992Z" fill="white"/>
</svg>
