<svg width="55" height="50" viewBox="0 0 55 50" fill="none" xmlns="http://www.w3.org/2000/svg">
<path d="M20.255 21.2243C20.3079 21.309 20.336 21.4067 20.3363 21.5065V27.4698C20.3369 27.5485 20.3219 27.6265 20.2921 27.6993C20.2623 27.7721 20.2183 27.8383 20.1626 27.8939C20.107 27.9495 20.0408 27.9935 19.968 28.0234C19.8952 28.0532 19.8172 28.0682 19.7385 28.0676C19.6311 28.0678 19.5256 28.0397 19.4325 27.9863L14.2773 24.9974C14.21 24.9592 14.151 24.9081 14.1035 24.847C14.056 24.7859 14.0211 24.716 14.0006 24.6414C13.9802 24.5667 13.9747 24.4888 13.9844 24.412C13.9941 24.3353 14.0189 24.2612 14.0573 24.194C14.1102 24.1015 14.1859 24.0241 14.2773 23.9693L19.4468 21.0139C19.582 20.9353 19.7429 20.9133 19.8942 20.9527C20.0456 20.9921 20.1753 21.0897 20.255 21.2243ZM30.4505 31.6542H24.4872C24.3859 31.6546 24.2867 31.6827 24.2003 31.7355C24.0665 31.816 23.9699 31.946 23.9314 32.0973C23.8929 32.2486 23.9156 32.409 23.9946 32.5437L26.95 37.7084C27.0018 37.8033 27.0799 37.8813 27.1748 37.9331C27.2422 37.9714 27.3166 37.9959 27.3935 38.0052C27.4705 38.0146 27.5485 38.0087 27.6232 37.9878C27.6979 37.9669 27.7677 37.9315 27.8286 37.8835C27.8895 37.8356 27.9403 37.776 27.9782 37.7084L30.9622 32.5437C31.0196 32.4522 31.0479 32.3455 31.0435 32.2376C31.0435 32.1602 31.0281 32.0835 30.9982 32.0121C30.9683 31.9407 30.9245 31.8759 30.8693 31.8216C30.8141 31.7673 30.7486 31.7246 30.6767 31.6958C30.6049 31.6671 30.528 31.6529 30.4505 31.6542ZM40.6987 24.0314L35.5196 21.0426C35.4281 20.9853 35.3214 20.9569 35.2136 20.9613C35.1355 20.9613 35.0582 20.9768 34.9862 21.007C34.9142 21.0371 34.849 21.0813 34.7942 21.1369C34.7395 21.1926 34.6963 21.2586 34.6674 21.331C34.6384 21.4035 34.6241 21.481 34.6254 21.5591V27.5272C34.6304 27.6269 34.66 27.7238 34.7114 27.8093C34.7504 27.8765 34.8024 27.9353 34.8643 27.9821C34.9263 28.0289 34.997 28.0629 35.0723 28.0821C35.1476 28.1012 35.2259 28.1052 35.3027 28.0936C35.3795 28.0821 35.4533 28.0554 35.5196 28.015L40.6843 25.0596C40.778 25.0082 40.8557 24.9321 40.9091 24.8396C40.9877 24.7044 41.0097 24.5436 40.9703 24.3922C40.9309 24.2408 40.8333 24.1112 40.6987 24.0314ZM28.0308 11.3301C27.9759 11.2387 27.8985 11.1629 27.806 11.1101C27.7388 11.0717 27.6648 11.0469 27.588 11.0371C27.5112 11.0274 27.4333 11.0329 27.3587 11.0534C27.284 11.0738 27.2142 11.1087 27.1531 11.1562C27.092 11.2037 27.0408 11.2628 27.0026 11.3301L24.0138 16.4996C23.9603 16.5927 23.9323 16.6982 23.9325 16.8056C23.935 16.9604 23.9979 17.1081 24.1078 17.2171C24.2177 17.3261 24.3659 17.3878 24.5207 17.389H30.4936C30.5934 17.3887 30.6911 17.3606 30.7757 17.3077C30.9103 17.228 31.0079 17.0983 31.0473 16.947C31.0867 16.7956 31.0648 16.6348 30.9861 16.4996L28.0308 11.3301Z" fill="white"/>
</svg>
