<svg width="42" height="42" viewBox="0 0 42 42" fill="none" xmlns="http://www.w3.org/2000/svg">
<g clip-path="url(#clip0_557_3034)">
<path d="M21 0C16.8466 0 12.7865 1.23163 9.33303 3.53914C5.8796 5.84665 3.18798 9.1264 1.59854 12.9636C0.00909901 16.8009 -0.406771 21.0233 0.403518 25.0969C1.21381 29.1705 3.21386 32.9123 6.15077 35.8492C9.08767 38.7861 12.8295 40.7862 16.9031 41.5965C20.9767 42.4068 25.1991 41.9909 29.0364 40.4015C32.8736 38.812 36.1534 36.1204 38.4609 32.667C40.7684 29.2135 42 25.1534 42 21C42 15.4305 39.7875 10.089 35.8492 6.15076C31.911 2.21249 26.5696 0 21 0V0ZM28.5936 14.9016C28.5936 14.9268 28.5936 14.9548 28.5936 14.9828C28.5936 15.0108 28.5936 15.0584 28.5768 15.0976C28.56 15.1368 28.5768 15.1564 28.5768 15.1872L28.56 15.2572C28.56 15.302 28.5404 15.344 28.5264 15.3888C28.5276 15.4018 28.5276 15.415 28.5264 15.428C28.5096 15.4812 28.4928 15.5344 28.4732 15.5848L28.448 15.6352C28.3421 15.882 28.1901 16.1063 28 16.296L24.024 20.2412L27.9132 24.1192C28.3068 24.5244 28.5251 25.0682 28.5209 25.6331C28.5168 26.198 28.2906 26.7385 27.8911 27.1379C27.4917 27.5374 26.9512 27.7636 26.3863 27.7677C25.8214 27.7719 25.2776 27.5536 24.8724 27.16L20.9832 23.282L17.094 27.174L17.0492 27.2188C16.6356 27.5878 16.0955 27.7828 15.5416 27.7631C14.9877 27.7435 14.4628 27.5108 14.0763 27.1135C13.6898 26.7162 13.4717 26.185 13.4674 25.6308C13.4631 25.0765 13.673 24.5421 14.0532 24.1388L17.9424 20.2468L14.0224 16.3268C13.8224 16.1271 13.6636 15.89 13.5552 15.629C13.4468 15.368 13.3909 15.0882 13.3907 14.8056C13.3901 14.2348 13.6164 13.6872 14.0196 13.2832C14.4228 12.8792 14.97 12.652 15.5408 12.6515C16.1116 12.6509 16.6592 12.8772 17.0632 13.2804L20.9832 17.2004L24.92 13.2552C25.3296 12.8567 25.8774 12.632 26.4488 12.628C26.7312 12.6279 27.0109 12.6835 27.2717 12.7916C27.5326 12.8997 27.7696 13.0582 27.9692 13.258C27.9944 13.2832 28.014 13.3084 28.0364 13.3336C28.0588 13.3588 28.0924 13.3896 28.1176 13.4204L28.1512 13.468C28.1848 13.5091 28.2156 13.5511 28.2436 13.594C28.2445 13.6024 28.2445 13.6108 28.2436 13.6192C28.2786 13.6704 28.3104 13.7237 28.3388 13.7788L28.3808 13.8684C28.3808 13.902 28.4144 13.9356 28.4284 13.9692C28.4424 14.0028 28.448 14.0252 28.4564 14.0532C28.4648 14.0812 28.4844 14.1288 28.4956 14.1652C28.5068 14.2016 28.5096 14.224 28.518 14.252C28.5264 14.28 28.5376 14.3276 28.546 14.3668V14.4284C28.5553 14.4756 28.5618 14.5233 28.5656 14.5712C28.5669 14.5889 28.5669 14.6067 28.5656 14.6244C28.5683 14.6757 28.5683 14.7271 28.5656 14.7784C28.5992 14.8176 28.5964 14.8596 28.5936 14.9016Z" fill="white"/>
</g>
<defs>
<clipPath id="clip0_557_3034">
<rect width="42" height="42" fill="white"/>
</clipPath>
</defs>
</svg>
