<svg width="28" height="28" viewBox="0 0 28 28" fill="none" xmlns="http://www.w3.org/2000/svg">
<g clip-path="url(#clip0_557_5950)">
<path d="M24.2341 20.2927C23.799 21.045 23.0833 21.5941 22.2439 21.8195C21.9652 21.8928 21.6784 21.9305 21.3902 21.9317C20.8165 21.9307 20.2531 21.7793 19.7561 21.4927C18.3178 20.4955 16.9958 19.3403 15.8146 18.0488C15.0929 17.3105 14.4579 16.4922 13.922 15.6098C12.6829 17.8146 9.08781 20.9756 8.1561 21.4927C7.66063 21.7787 7.09893 21.93 6.52683 21.9317C6.23869 21.9305 5.95186 21.8928 5.67318 21.8195C5.04674 21.6522 4.48398 21.3029 4.05608 20.8158C3.62817 20.3286 3.35435 19.7255 3.26924 19.0827C3.18412 18.44 3.29155 17.7864 3.57792 17.2047C3.86429 16.6229 4.31674 16.1392 4.87805 15.8146C6.40967 15.0374 8.01001 14.4038 9.65854 13.922C10.6788 13.576 11.7432 13.3773 12.8195 13.3317C11.5317 11.2829 10.7317 6.41951 10.7317 5.19512C10.7317 4.32573 11.0771 3.49194 11.6918 2.87719C12.3066 2.26244 13.1404 1.91707 14.0098 1.91707C14.8792 1.91707 15.7129 2.26244 16.3277 2.87719C16.9424 3.49194 17.2878 4.32573 17.2878 5.19512C17.2878 6.41463 16.4829 11.2488 15.2 13.3073C16.2266 13.3876 17.2402 13.589 18.2195 13.9073C19.8825 14.3944 21.4974 15.0329 23.0439 15.8146C23.4167 16.0299 23.7435 16.3164 24.0056 16.6579C24.2677 16.9995 24.46 17.3893 24.5714 17.8051C24.6828 18.2209 24.7113 18.6546 24.6551 19.0815C24.5989 19.5083 24.4592 19.9199 24.2439 20.2927H24.2341ZM28 14C28 16.7689 27.1789 19.4757 25.6406 21.778C24.1022 24.0803 21.9157 25.8747 19.3576 26.9343C16.7994 27.9939 13.9845 28.2712 11.2687 27.731C8.55301 27.1908 6.05845 25.8574 4.10051 23.8995C2.14258 21.9416 0.809205 19.447 0.269012 16.7313C-0.271181 14.0155 0.00606595 11.2006 1.06569 8.64243C2.12532 6.08427 3.91973 3.89776 6.22202 2.35943C8.52431 0.821085 11.2311 0 14 0C17.7118 0.0038739 21.2705 1.48011 23.8952 4.10478C26.5199 6.72945 27.9961 10.2882 28 14ZM27.5122 14C27.5122 11.3275 26.7197 8.71509 25.235 6.49303C23.7502 4.27096 21.6399 2.53907 19.1709 1.51636C16.7019 0.493653 13.985 0.226067 11.3639 0.747438C8.7428 1.26881 6.33516 2.55572 4.44544 4.44543C2.55573 6.33515 1.26882 8.74279 0.747444 11.3639C0.226073 13.985 0.49366 16.7019 1.51637 19.1709C2.53907 21.6399 4.27096 23.7502 6.49303 25.235C8.7151 26.7197 11.3275 27.5122 14 27.5122C17.5825 27.5083 21.0171 26.0835 23.5503 23.5503C26.0835 21.0171 27.5083 17.5825 27.5122 14Z" fill="white"/>
</g>
<defs>
<clipPath id="clip0_557_5950">
<rect width="28" height="28" fill="white"/>
</clipPath>
</defs>
</svg>
