<svg width="24" height="31" viewBox="0 0 24 31" fill="none" xmlns="http://www.w3.org/2000/svg">
<g clip-path="url(#clip0_557_7867)">
<path d="M24 8.99004V9.44397C24.0004 9.50696 23.9881 9.56939 23.964 9.62765C23.9399 9.68591 23.9043 9.73884 23.8594 9.78338C23.8145 9.82792 23.7611 9.86318 23.7024 9.88711C23.6437 9.91105 23.5807 9.92318 23.5172 9.92281H14.0009C13.8667 9.9192 13.7392 9.86357 13.6458 9.76785C13.5525 9.67213 13.5006 9.54394 13.5014 9.41076V0.478883C13.5014 0.351887 13.5523 0.230092 13.6428 0.140293C13.7333 0.0504928 13.8561 4.3851e-05 13.9842 4.3851e-05H14.7321C15.0238 -0.000949929 15.3042 0.111313 15.5135 0.312812L23.6763 8.23442C23.7783 8.3326 23.8595 8.45003 23.9151 8.5798C23.9707 8.70956 23.9996 8.84905 24 8.99004ZM12.106 9.41076V0.484419C12.106 0.355955 12.0546 0.232752 11.963 0.141914C11.8714 0.0510761 11.7472 4.3851e-05 11.6177 4.3851e-05H1.11628C0.971821 -0.00326206 0.828139 0.0219222 0.693573 0.0741349C0.559007 0.126348 0.436237 0.204549 0.332389 0.3042C0.22854 0.403851 0.145682 0.522966 0.0886227 0.654634C0.0315635 0.786301 0.00143978 0.927897 0 1.0712L0 29.9289C0.00143978 30.0722 0.0315635 30.2138 0.0886227 30.3455C0.145682 30.4771 0.22854 30.5962 0.332389 30.6959C0.436237 30.7955 0.559007 30.8737 0.693573 30.926C0.828139 30.9782 0.971821 31.0034 1.11628 31H22.8837C23.0282 31.0034 23.1719 30.9782 23.3064 30.926C23.441 30.8737 23.5638 30.7955 23.6676 30.6959C23.7715 30.5962 23.8543 30.4771 23.9114 30.3455C23.9684 30.2138 23.9986 30.0722 24 29.9289V11.7856C24 11.6586 23.9491 11.5368 23.8586 11.447C23.7681 11.3572 23.6453 11.3067 23.5172 11.3067H14.0009C13.4968 11.3024 13.0149 11.1007 12.66 10.7456C12.3051 10.3905 12.106 9.91074 12.106 9.41076Z" fill="white"/>
</g>
<defs>
<clipPath id="clip0_557_7867">
<rect width="24" height="31" fill="white"/>
</clipPath>
</defs>
</svg>
