<svg width="55" height="50" viewBox="0 0 55 50" fill="none" xmlns="http://www.w3.org/2000/svg">
<g clip-path="url(#clip0_557_54)">
<path d="M39 18.41V18.8347C39.0003 18.8936 38.9891 18.952 38.967 19.0065C38.9449 19.061 38.9123 19.1105 38.8711 19.1522C38.83 19.1938 38.781 19.2268 38.7272 19.2492C38.6734 19.2716 38.6157 19.283 38.5574 19.2826H29.8342C29.7111 19.2792 29.5943 19.2272 29.5087 19.1377C29.4231 19.0481 29.3756 18.9282 29.3763 18.8036V10.448C29.3763 10.3292 29.4229 10.2152 29.5059 10.1312C29.5889 10.0472 29.7015 10 29.8188 10H30.5044C30.7718 9.9991 31.0289 10.1041 31.2207 10.2926L38.7033 17.7032C38.7968 17.795 38.8712 17.9048 38.9222 18.0262C38.9731 18.1476 38.9996 18.2781 39 18.41ZM28.0972 18.8036V10.4532C28.0972 10.333 28.05 10.2177 27.9661 10.1327C27.8821 10.0478 27.7683 10 27.6495 10H18.0233C17.8908 9.99693 17.7591 10.0205 17.6358 10.0693C17.5124 10.1182 17.3999 10.1913 17.3047 10.2846C17.2095 10.3778 17.1335 10.4892 17.0812 10.6124C17.0289 10.7356 17.0013 10.868 17 11.0021V37.998C17.0013 38.132 17.0289 38.2645 17.0812 38.3877C17.1335 38.5108 17.2095 38.6223 17.3047 38.7155C17.3999 38.8087 17.5124 38.8819 17.6358 38.9307C17.7591 38.9796 17.8908 39.0031 18.0233 39H37.9767C38.1092 39.0031 38.2409 38.9796 38.3642 38.9307C38.4876 38.8819 38.6001 38.8087 38.6953 38.7155C38.7905 38.6223 38.8665 38.5108 38.9188 38.3877C38.9711 38.2645 38.9987 38.132 39 37.998V21.0252C39 20.9064 38.9534 20.7925 38.8704 20.7085C38.7874 20.6245 38.6748 20.5773 38.5574 20.5773H29.8342C29.3721 20.5732 28.9303 20.3845 28.605 20.0523C28.2797 19.7201 28.0972 19.2713 28.0972 18.8036Z" fill="white"/>
</g>
<defs>
<clipPath id="clip0_557_54">
<rect width="22" height="29" fill="white" transform="translate(17 10)"/>
</clipPath>
</defs>
</svg>
