<svg width="31" height="29" viewBox="0 0 31 29" fill="none" xmlns="http://www.w3.org/2000/svg">
<path d="M8.63647 1L21.9092 1V7.02786L15.2728 13.0717L8.63648 7.02786L7.96315 7.7672L8.63647 7.02786L8.63647 1Z" fill="white" stroke="white" stroke-width="2"/>
<path d="M15.2727 12.7273V16.9697V18.2534C15.2727 19.1709 16.0165 19.9146 16.934 19.9146V19.9146H24.0791V19.9146C25.4931 19.9146 25.8819 21.8583 24.5768 22.4023L24.3279 22.506C24.1637 22.5745 23.9875 22.6098 23.8095 22.6098H6.21625V22.6098C4.81691 22.6098 4.41941 24.5258 5.70327 25.0825L5.95976 25.1937C6.12895 25.267 6.3114 25.3049 6.4958 25.3049H24.0791V25.3049C25.399 25.3049 25.8368 27.0728 24.6693 27.6886L24.3742 27.8443C24.1804 27.9466 23.9646 28 23.7454 28H2.64368" stroke="white" stroke-width="2" stroke-linecap="round"/>
</svg>
