<svg width="32" height="29" viewBox="0 0 32 29" fill="none" xmlns="http://www.w3.org/2000/svg">
<path d="M9.36353 1L22.6363 1V7.02786L15.9999 13.0717L9.36353 7.02786L8.6902 7.7672L9.36353 7.02786L9.36353 1Z" fill="white" stroke="white" stroke-width="2"/>
<path d="M15.9998 12.7273V16.9697V18.2534C15.9998 19.1709 16.7435 19.9146 17.661 19.9146V19.9146H24.8061V19.9146C26.2201 19.9146 26.609 21.8583 25.3038 22.4023L25.055 22.506C24.8907 22.5745 24.7145 22.6098 24.5366 22.6098H6.9433V22.6098C5.54396 22.6098 5.14646 24.5258 6.43033 25.0825L6.68681 25.1937C6.856 25.267 7.03845 25.3049 7.22285 25.3049H24.8061V25.3049C26.1261 25.3049 26.5638 27.0728 25.3964 27.6886L25.1013 27.8443C24.9074 27.9466 24.6916 28 24.4725 28H3.37073" stroke="white" stroke-width="2" stroke-linecap="round"/>
</svg>
