<svg width="52" height="51" viewBox="0 0 52 51" fill="none" xmlns="http://www.w3.org/2000/svg">
<g clip-path="url(#clip0_557_3092)">
<path d="M43.92 50.13H7.79001C5.7204 50.1247 3.73752 49.2982 2.27689 47.8319C0.81627 46.3657 -0.00265029 44.3796 6.44408e-06 42.31V7.82C-0.00265029 5.75039 0.81627 3.76434 2.27689 2.29809C3.73752 0.831846 5.7204 0.0052982 7.79001 0H43.92C45.9888 0.00793659 47.9701 0.83533 49.4302 2.301C50.8903 3.76668 51.71 5.75119 51.71 7.82V42.31C51.71 44.3788 50.8903 46.3633 49.4302 47.829C47.9701 49.2947 45.9888 50.1221 43.92 50.13ZM7.79001 1C6.89617 1.00131 6.01137 1.17883 5.1862 1.5224C4.36104 1.86597 3.6117 2.36885 2.98106 3.00228C2.35042 3.6357 1.85085 4.38725 1.51092 5.21392C1.17099 6.04059 0.997377 6.92617 1.00001 7.82V42.31C0.997377 43.2038 1.17099 44.0894 1.51092 44.9161C1.85085 45.7428 2.35042 46.4943 2.98106 47.1277C3.6117 47.7612 4.36104 48.264 5.1862 48.6076C6.01137 48.9512 6.89617 49.1287 7.79001 49.13H43.92C45.7228 49.1194 47.4482 48.3966 48.7202 47.119C49.9921 45.8414 50.7074 44.1128 50.71 42.31V7.82C50.7074 6.01721 49.9921 4.28857 48.7202 3.011C47.4482 1.73343 45.7228 1.01056 43.92 1H7.79001ZM39.34 16.24H35.05C34.218 16.2347 33.422 15.9005 32.8355 15.3103C32.2491 14.7202 31.92 13.922 31.92 13.09V13H3.92001C3.59909 13 3.29133 12.8725 3.06441 12.6456C2.83749 12.4187 2.71001 12.1109 2.71001 11.79V10.89C2.7033 10.7311 2.728 10.5724 2.7827 10.423C2.83739 10.2736 2.92099 10.1365 3.02874 10.0195C3.13648 9.90244 3.26624 9.8078 3.41059 9.74097C3.55495 9.67414 3.71106 9.63643 3.87001 9.63H31.87V9.49C31.87 8.65802 32.1991 7.85982 32.7855 7.26966C33.372 6.67949 34.168 6.34528 35 6.34H39.29C40.1237 6.34265 40.9224 6.67569 41.5109 7.26614C42.0995 7.8566 42.43 8.6563 42.43 9.49V9.63H48.19C48.5109 9.63 48.8187 9.75748 49.0456 9.9844C49.2725 10.2113 49.4 10.5191 49.4 10.84V11.74C49.4137 12.0577 49.3017 12.368 49.0884 12.6038C48.875 12.8396 48.5775 12.9819 48.26 13H42.48V13.14C42.4669 13.965 42.1306 14.7519 41.5435 15.3316C40.9563 15.9113 40.1651 16.2375 39.34 16.24ZM45.44 30.32H29C28.6816 30.3088 28.3661 30.3836 28.0868 30.5368C27.8074 30.6899 27.5745 30.9156 27.4128 31.19C27.251 31.4644 27.1662 31.7774 27.1675 32.096C27.1688 32.4146 27.256 32.7269 27.42 33L35.67 47.35C35.7834 47.5518 35.9355 47.7292 36.1176 47.8721C36.2996 48.015 36.5081 48.1206 36.731 48.1828C36.954 48.2451 37.187 48.2627 37.4167 48.2348C37.6465 48.2068 37.8685 48.1339 38.07 48.02C38.3486 47.8632 38.5774 47.631 38.73 47.35L47 33C47.2373 32.5982 47.3052 32.1186 47.189 31.6666C47.0727 31.2147 46.7817 30.8274 46.38 30.59C46.0996 30.4104 45.7729 30.3166 45.44 30.32Z" fill="white"/>
</g>
<defs>
<clipPath id="clip0_557_3092">
<rect width="51.71" height="50.13" fill="white"/>
</clipPath>
</defs>
</svg>
