<svg width="52" height="50" viewBox="0 0 52 50" fill="none" xmlns="http://www.w3.org/2000/svg">
<g clip-path="url(#clip0_557_3084)">
<path d="M16.06 26.76L22 37C22.1523 37.2639 22.1936 37.5775 22.1148 37.8719C22.0361 38.1663 21.8437 38.4173 21.58 38.57C21.4103 38.6696 21.2168 38.7215 21.02 38.72H9.17C9.01212 38.723 8.85532 38.6934 8.70938 38.6331C8.56343 38.5728 8.43147 38.4831 8.3217 38.3696C8.21194 38.2561 8.12673 38.1212 8.07138 37.9733C8.01603 37.8254 7.99173 37.6677 8 37.51C8.0268 37.3269 8.09522 37.1525 8.2 37L14.08 26.8C14.1546 26.6698 14.2542 26.5555 14.3731 26.4639C14.492 26.3723 14.6278 26.305 14.7728 26.266C14.9177 26.2269 15.0689 26.2169 15.2178 26.2365C15.3666 26.2561 15.5101 26.3048 15.64 26.38C15.8119 26.4662 15.9571 26.5976 16.06 26.76ZM51.71 42.1V7.79C51.7047 5.72559 50.8823 3.74724 49.4225 2.28747C47.9628 0.827705 45.9844 0.00527986 43.92 0L7.79 0C5.72396 0 3.74255 0.82073 2.28164 2.28164C0.82073 3.74255 0 5.72396 0 7.79L0 42.1C0 44.166 0.82073 46.1475 2.28164 47.6084C3.74255 49.0693 5.72396 49.89 7.79 49.89H43.92C45.9844 49.8847 47.9628 49.0623 49.4225 47.6025C50.8823 46.1428 51.7047 44.1644 51.71 42.1ZM43.92 1C45.72 1.00265 47.4455 1.71887 48.7183 2.99167C49.9911 4.26447 50.7074 5.98999 50.71 7.79V42.1C50.7074 43.9 49.9911 45.6255 48.7183 46.8983C47.4455 48.1711 45.72 48.8874 43.92 48.89H7.79C5.98999 48.8874 4.26447 48.1711 2.99167 46.8983C1.71887 45.6255 1.00265 43.9 1 42.1V7.79C1 5.98918 1.71537 4.26212 2.98874 2.98874C4.26212 1.71537 5.98918 1 7.79 1H43.92ZM48.92 42V42.31C48.9147 43.0076 48.6346 43.675 48.1404 44.1674C47.6461 44.6598 46.9776 44.9374 46.28 44.94H4.41C3.71248 44.94 3.04353 44.6629 2.55031 44.1697C2.05709 43.6765 1.78 43.0075 1.78 42.31V42C1.78261 41.3024 2.06022 40.6339 2.5526 40.1397C3.04497 39.6454 3.71238 39.3653 4.41 39.36H46.31C46.6605 39.3547 47.0086 39.419 47.3341 39.5492C47.6596 39.6794 47.956 39.8728 48.2062 40.1184C48.4564 40.3639 48.6554 40.6567 48.7916 40.9796C48.9279 41.3026 48.9987 41.6494 49 42H48.92ZM16.13 23.56V20.12L18.62 17.63C18.8613 17.3883 18.9978 17.0615 19 16.72V13.15C18.9984 12.9321 18.9613 12.7159 18.89 12.51H48.24C48.4601 12.51 48.6712 12.4226 48.8269 12.2669C48.9826 12.1112 49.07 11.9001 49.07 11.68V10.79C49.07 10.5699 48.9826 10.3588 48.8269 10.2031C48.6712 10.0474 48.4601 9.96 48.24 9.96H3.88C3.65987 9.96 3.44876 10.0474 3.2931 10.2031C3.13745 10.3588 3.05 10.5699 3.05 10.79V11.68C3.05 11.9001 3.13745 12.1112 3.2931 12.2669C3.44876 12.4226 3.65987 12.51 3.88 12.51H11C10.9368 12.7176 10.9031 12.933 10.9 13.15V16.53C10.8999 16.6916 10.9317 16.8515 10.9935 17.0008C11.0552 17.1501 11.1458 17.2857 11.26 17.4L14.26 20.4V23.54C14.26 23.7601 14.3474 23.9712 14.5031 24.1269C14.6588 24.2826 14.8699 24.37 15.09 24.37H15.31C15.525 24.3675 15.7306 24.2816 15.8835 24.1305C16.0365 23.9795 16.1248 23.7749 16.13 23.56Z" fill="white"/>
</g>
<defs>
<clipPath id="clip0_557_3084">
<rect width="51.71" height="49.89" fill="white"/>
</clipPath>
</defs>
</svg>
