<svg width="30" height="33" viewBox="0 0 30 33" fill="none" xmlns="http://www.w3.org/2000/svg">
<g clip-path="url(#clip0_557_42)">
<path d="M13.4765 18.5266H16.5237C17.2264 18.5281 17.8999 18.8206 18.3961 19.3399C18.8923 19.8592 19.1706 20.5628 19.1698 21.296V31.3776C19.1698 31.8074 19.3333 32.2196 19.6243 32.5238C19.9153 32.828 20.3101 32.9992 20.7221 33H28.4478C28.8597 32.9992 29.2546 32.828 29.5456 32.5238C29.8366 32.2196 30.0001 31.8074 30.0001 31.3776V11.6129C29.9998 11.3527 29.94 11.0964 29.8257 10.8652C29.7113 10.634 29.5457 10.4346 29.3426 10.2837L15.8226 0.284625C15.5598 0.0903991 15.2457 -0.013916 14.9237 -0.013916C14.6016 -0.013916 14.2876 0.0903991 14.0248 0.284625L0.657512 10.2666C0.452397 10.4181 0.285472 10.6192 0.170988 10.8527C0.0565034 11.0861 -0.00214132 11.345 5.97465e-05 11.6072V31.3776C5.91126e-05 31.8074 0.163511 32.2196 0.454535 32.5238C0.745558 32.828 1.14037 32.9992 1.5523 33H9.27532C9.68725 32.9992 10.0821 32.828 10.3731 32.5238C10.6641 32.2196 10.8276 31.8074 10.8276 31.3776V21.296C10.8272 20.9327 10.8954 20.5729 11.0284 20.2371C11.1613 19.9013 11.3563 19.5961 11.6023 19.3389C11.8482 19.0817 12.1404 18.8776 12.4619 18.7382C12.7835 18.5989 13.1282 18.5269 13.4765 18.5266Z" fill="white"/>
</g>
<defs>
<clipPath id="clip0_557_42">
<rect width="30" height="33" fill="white"/>
</clipPath>
</defs>
</svg>
