<svg width="52" height="50" viewBox="0 0 52 50" fill="none" xmlns="http://www.w3.org/2000/svg">
<g clip-path="url(#clip0_557_3088)">
<path d="M13.25 32.9V36.49C13.2474 37.321 12.9154 38.1171 12.3268 38.7039C11.7382 39.2906 10.941 39.62 10.11 39.62H9.62V46.77C9.62265 46.9289 9.59397 47.0868 9.53559 47.2346C9.47722 47.3824 9.3903 47.5173 9.27979 47.6315C9.16928 47.7457 9.03736 47.8371 8.89155 47.9003C8.74574 47.9635 8.58891 47.9974 8.43 48H7.52C7.19909 48 6.89132 47.8725 6.6644 47.6456C6.43748 47.4187 6.31 47.1109 6.31 46.79V39.62H5.82C4.98895 39.62 4.19179 39.2906 3.60321 38.7039C3.01464 38.1171 2.68265 37.321 2.68 36.49V32.9C2.68265 32.069 3.01464 31.2728 3.60321 30.6861C4.19179 30.0994 4.98895 29.77 5.82 29.77H6.31V2.42C6.31 2.09909 6.43748 1.79132 6.6644 1.5644C6.89132 1.33748 7.19909 1.21 7.52 1.21H8.41C8.73091 1.21 9.03868 1.33748 9.2656 1.5644C9.49252 1.79132 9.62 2.09909 9.62 2.42V29.77H10.11C10.941 29.77 11.7382 30.0994 12.3268 30.6861C12.9154 31.2728 13.2474 32.069 13.25 32.9ZM51.71 7.79V42.1C51.7047 44.1644 50.8823 46.1428 49.4225 47.6025C47.9628 49.0623 45.9844 49.8847 43.92 49.89H7.79C5.72396 49.89 3.74255 49.0693 2.28164 47.6084C0.82073 46.1475 0 44.166 0 42.1H0V7.79C0 5.72396 0.82073 3.74255 2.28164 2.28164C3.74255 0.82073 5.72396 0 7.79 0L43.92 0C45.9844 0.00527986 47.9628 0.827705 49.4225 2.28747C50.8823 3.74724 51.7047 5.72559 51.71 7.79ZM50.71 7.79C50.7074 5.98999 49.9911 4.26447 48.7183 2.99167C47.4455 1.71887 45.72 1.00265 43.92 1H7.79C6.89832 1 6.01538 1.17563 5.19158 1.51686C4.36778 1.85809 3.61925 2.35824 2.98874 2.98874C1.71537 4.26212 1 5.98918 1 7.79V42.1C1.00265 43.9 1.71887 45.6255 2.99167 46.8983C4.26447 48.1711 5.98999 48.8874 7.79 48.89H43.92C45.72 48.8874 47.4455 48.1711 48.7183 46.8983C49.9911 45.6255 50.7074 43.9 50.71 42.1V7.79ZM32.8 24.53V41.35C32.8103 41.7861 32.9888 42.2013 33.2981 42.5089C33.6075 42.8164 34.0238 42.9924 34.46 43C34.7648 42.9982 35.0642 42.9191 35.33 42.77L49.92 34.41C50.1283 34.2958 50.3077 34.1355 50.4446 33.9414C50.5815 33.7473 50.6723 33.5245 50.71 33.29V32.64C50.6676 32.4058 50.575 32.1836 50.4387 31.9885C50.3023 31.7935 50.1254 31.6302 49.92 31.51L35.33 23.2C35.0834 23.0544 34.8036 22.9743 34.5173 22.9672C34.2311 22.9602 33.9477 23.0264 33.6942 23.1597C33.4407 23.2929 33.2255 23.4888 33.069 23.7286C32.9125 23.9684 32.8199 24.2443 32.8 24.53Z" fill="white"/>
</g>
<defs>
<clipPath id="clip0_557_3088">
<rect width="51.71" height="49.89" fill="white"/>
</clipPath>
</defs>
</svg>
