<svg width="15" height="21" viewBox="0 0 15 21" fill="none" xmlns="http://www.w3.org/2000/svg">
<g clip-path="url(#clip0_659_152)">
<path d="M13.2715 7.26396H12.3784V2.8442C12.3773 2.09126 12.075 1.36938 11.5376 0.836403C11.0002 0.303423 10.2715 0.00270374 9.51068 0H5.49552C4.73366 0.00108255 4.00331 0.301086 3.46459 0.834242C2.92587 1.3674 2.62274 2.0902 2.62164 2.8442V7.26396H1.72846C1.27005 7.26396 0.830406 7.44418 0.506256 7.76498C0.182107 8.08579 1.23668e-06 8.52089 1.23668e-06 8.97457V19.2873C-0.000270485 19.5122 0.044237 19.7348 0.130979 19.9426C0.217721 20.1504 0.344995 20.3392 0.505525 20.4983C0.666055 20.6573 0.856691 20.7835 1.06653 20.8696C1.27637 20.9557 1.50131 21 1.72846 21H13.2715C13.4987 21 13.7236 20.9557 13.9335 20.8696C14.1433 20.7835 14.334 20.6573 14.4945 20.4983C14.655 20.3392 14.7823 20.1504 14.869 19.9426C14.9558 19.7348 15.0003 19.5122 15 19.2873V8.97457C15 8.74993 14.9553 8.52749 14.8684 8.31995C14.7816 8.11241 14.6543 7.92383 14.4937 7.76498C14.3332 7.60614 14.1427 7.48014 13.933 7.39417C13.7233 7.3082 13.4985 7.26396 13.2715 7.26396ZM4.27567 2.8442C4.27622 2.52418 4.40491 2.21743 4.63356 1.99114C4.86221 1.76486 5.17217 1.63749 5.49552 1.63695H9.51068C9.83421 1.63695 10.1445 1.76414 10.3732 1.99054C10.602 2.21695 10.7305 2.52402 10.7305 2.8442V7.26396H4.27567V2.8442Z" fill="white"/>
</g>
<defs>
<clipPath id="clip0_659_152">
<rect width="15" height="21" fill="white"/>
</clipPath>
</defs>
</svg>
