<svg width="34" height="40" viewBox="0 0 34 40" fill="none" xmlns="http://www.w3.org/2000/svg">
<path d="M31.9057 22.096L31.9021 22.0982L4.71073 38.6824L4.70386 38.6866L4.69707 38.6909C4.37749 38.8929 4.01885 38.9975 3.65742 39C3.29598 39.0024 2.93639 38.9025 2.61483 38.705C2.29264 38.5071 2.01771 38.2164 1.82471 37.8563C1.63155 37.4959 1.52965 37.0827 1.53356 36.6597L1.5336 36.6597L1.5336 36.6505L1.5336 3.31643C1.5336 3.31637 1.5336 3.31632 1.5336 3.31626C1.5337 2.8954 1.63845 2.48539 1.83308 2.12851L0.955139 1.64973L1.83308 2.1285C2.02756 1.77188 2.30264 1.48459 2.62405 1.28944C2.94485 1.09465 3.30292 0.996735 3.6626 1.00008C4.02231 1.00343 4.37906 1.10802 4.69712 1.30907L4.69708 1.30913L4.7077 1.31567L31.8991 18.0325L31.8991 18.0326L31.9057 18.0365C32.2281 18.2314 32.5042 18.5188 32.6995 18.876L33.5738 18.3981L32.6995 18.876C32.8948 19.2335 33 19.6444 33 20.0663C33 20.4881 32.8948 20.8991 32.6995 21.2566C32.5042 21.6138 32.2281 21.9012 31.9057 22.096Z" stroke="white" stroke-width="2"/>
</svg>
