<svg width="25" height="21" viewBox="0 0 25 21" fill="none" xmlns="http://www.w3.org/2000/svg">
<path d="M14.2974 0.982458L24.628 17.9204C24.8149 18.2161 24.9146 18.553 24.9169 18.8968C24.9192 19.2405 24.824 19.5786 24.6411 19.8764C24.4581 20.1742 24.194 20.4211 23.8759 20.5916C23.5577 20.7621 23.1969 20.8502 22.8305 20.8468H2.066C1.70132 20.8467 1.34316 20.7561 1.02789 20.5842C0.712623 20.4123 0.451486 20.1652 0.271008 19.8679C0.0905287 19.5707 -0.00286179 19.2339 0.00032295 18.8919C0.00350769 18.5498 0.103154 18.2147 0.28914 17.9204L10.7024 0.982458C10.8826 0.684206 11.1439 0.436128 11.4597 0.263532C11.7755 0.0909365 12.1344 0 12.4999 0C12.8654 0 13.2243 0.0909365 13.5401 0.263532C13.8559 0.436128 14.1172 0.684206 14.2974 0.982458Z" fill="white"/>
</svg>
