<svg width="34" height="40" viewBox="0 0 34 40" fill="none" xmlns="http://www.w3.org/2000/svg">
<path d="M2.09433 17.904L2.09789 17.9018L29.2893 1.31761L29.2961 1.31343L29.3029 1.30913C29.6225 1.1071 29.9811 1.00246 30.3426 1.00004C30.704 0.99763 31.0636 1.09745 31.3852 1.29498C31.7074 1.49288 31.9823 1.78359 32.1753 2.14369C32.3684 2.50411 32.4704 2.91734 32.4664 3.34028L32.4664 3.34028L32.4664 3.34952L32.4664 36.6836C32.4664 36.6836 32.4664 36.6837 32.4664 36.6837C32.4663 37.1046 32.3615 37.5146 32.1669 37.8715L33.0449 38.3503L32.1669 37.8715C31.9724 38.2281 31.6974 38.5154 31.3759 38.7106C31.0551 38.9053 30.6971 39.0033 30.3374 38.9999C29.9777 38.9966 29.6209 38.892 29.3029 38.6909L29.3029 38.6909L29.2923 38.6843L2.10091 21.9675L2.10093 21.9674L2.09432 21.9635C1.77188 21.7686 1.49577 21.4812 1.30055 21.124L0.426159 21.6019L1.30055 21.124C1.10515 20.7665 0.999999 20.3556 0.999999 19.9337C0.999999 19.5119 1.10515 19.1009 1.30055 18.7434C1.49577 18.3862 1.77188 18.0988 2.09433 17.904Z" stroke="white" stroke-width="2"/>
</svg>
