<svg width="34" height="29" viewBox="0 0 34 29" fill="none" xmlns="http://www.w3.org/2000/svg">
<path d="M33.1003 4.95722C32.4392 3.26029 31.2437 1.83 29.6979 0.88685C29.0227 0.536195 28.2861 0.32205 27.5296 0.25644C26.0741 0.107404 24.6117 0.0378088 23.1488 0.0479582C20.9461 0.00824736 18.7237 -0.0364274 16.5308 0.0479582C14.7235 0.103861 12.93 0.385638 11.1912 0.88685L11.0831 0.921598C10.5261 1.07338 9.97924 1.26073 9.4458 1.48251H9.40646L9.34255 1.50733H9.30813L8.99837 1.62647C8.90479 1.64869 8.81844 1.69484 8.74762 1.76049C5.81346 3.14967 3.44235 5.51615 2.03273 8.46227C0.623106 11.4084 0.260894 14.7546 1.00696 17.9385C1.75302 21.1225 3.56188 23.9501 6.12959 25.9463C8.69729 27.9425 11.8673 28.9856 15.107 28.9003C18.3467 28.815 21.4585 27.6065 23.9197 25.4778C26.3808 23.3492 28.0412 20.4301 28.6218 17.2112C29.2024 13.9923 28.6679 10.6698 27.108 7.80186C25.5482 4.93396 23.0581 2.6955 20.0561 1.46266H21.8114C23.4782 1.46266 25.1548 1.46266 26.8167 1.61654C27.215 1.63743 27.6111 1.68888 28.0016 1.77042C28.154 1.80516 28.3015 1.83991 28.454 1.88459L28.6506 1.95408C28.7785 1.99379 28.7981 2.01365 28.7195 1.9789C30.2338 2.6937 31.227 4.16796 31.8613 5.67201C32.2005 6.60522 33.469 5.85071 33.1003 4.95722ZM20.0611 9.29066C21.2835 10.5259 22.05 12.1466 22.2328 13.8829C22.4156 15.6192 22.0037 17.3664 21.0657 18.8334C20.1277 20.3004 18.7202 21.3988 17.0777 21.9455C15.4351 22.4923 13.6566 22.4544 12.0383 21.8383C10.42 21.2222 9.05962 20.065 8.18367 18.5594C7.30772 17.0538 6.96908 15.2907 7.22415 13.5637C7.47921 11.8367 8.3126 10.25 9.58551 9.06786C10.8584 7.88574 12.494 7.17954 14.22 7.06686C14.3822 7.06686 14.5396 7.06686 14.7116 7.06686C16.716 7.06407 18.6398 7.86378 20.0611 9.29066Z" fill="white"/>
</svg>
