<svg width="40" height="34" viewBox="0 0 40 34" fill="none" xmlns="http://www.w3.org/2000/svg">
<path d="M17.904 31.3722L17.9018 31.3687L1.31761 4.17728L1.31343 4.17042L1.30913 4.16362C1.1071 3.84404 1.00246 3.48541 1.00005 3.12397C0.99763 2.76253 1.09745 2.40295 1.29498 2.08138C1.49288 1.7592 1.78359 1.48427 2.1437 1.29126C2.50411 1.0981 2.91734 0.996201 3.34028 1.00011L3.34028 1.00015L3.34952 1.00015L36.6836 1.00015C36.6836 1.00015 36.6837 1.00015 36.6837 1.00015C37.1046 1.00025 37.5146 1.10501 37.8715 1.29963L38.3503 0.421692L37.8715 1.29963C38.2281 1.49411 38.5154 1.7692 38.7106 2.0906C38.9053 2.41141 39.0033 2.76947 38.9999 3.12916C38.9966 3.48886 38.892 3.84562 38.6909 4.16367L38.6909 4.16363L38.6843 4.17425L21.9675 31.3656L21.9674 31.3656L21.9635 31.3722C21.7686 31.6947 21.4812 31.9708 21.124 32.166L21.6019 33.0404L21.124 32.166C20.7665 32.3614 20.3556 32.4666 19.9337 32.4666C19.5119 32.4666 19.1009 32.3614 18.7434 32.166C18.3862 31.9708 18.0988 31.6947 17.904 31.3722Z" stroke="white" stroke-width="2"/>
</svg>
