<svg width="21" height="25" viewBox="0 0 21 25" fill="none" xmlns="http://www.w3.org/2000/svg">
<path d="M20.0175 14.2972L3.07956 24.6277C2.78391 24.8146 2.44695 24.9144 2.10324 24.9167C1.75953 24.9189 1.42142 24.8237 1.1236 24.6408C0.825774 24.4579 0.578946 24.1938 0.408421 23.8756C0.237899 23.5574 0.149814 23.1966 0.153199 22.8302L0.1532 2.06575C0.153261 1.70108 0.243856 1.34291 0.415783 1.02764C0.587709 0.712378 0.834845 0.451241 1.13208 0.270763C1.42931 0.0902837 1.76606 -0.00310677 2.10811 7.79835e-05C2.45016 0.00326274 2.78532 0.102909 3.07956 0.288895L20.0175 10.7021C20.3158 10.8823 20.5639 11.1436 20.7365 11.4594C20.9091 11.7752 21 12.1342 21 12.4996C21 12.8651 20.9091 13.2241 20.7365 13.5398C20.5639 13.8556 20.3158 14.117 20.0175 14.2972Z" fill="white"/>
</svg>
