<svg width="40" height="34" viewBox="0 0 40 34" fill="none" xmlns="http://www.w3.org/2000/svg">
<path d="M22.096 2.09433L22.0982 2.09789L38.6824 29.2893L38.6866 29.2961L38.6909 29.3029C38.8929 29.6225 38.9975 29.9811 39 30.3426C39.0024 30.704 38.9025 31.0636 38.705 31.3852C38.5071 31.7074 38.2164 31.9823 37.8563 32.1753C37.4959 32.3684 37.0827 32.4704 36.6597 32.4664L36.6597 32.4664L36.6505 32.4664L3.31643 32.4664C3.31637 32.4664 3.31632 32.4664 3.31626 32.4664C2.8954 32.4663 2.48539 32.3615 2.12851 32.1669L1.64973 33.0449L2.1285 32.1669C1.77189 31.9724 1.4846 31.6974 1.28944 31.3759C1.09465 31.0551 0.996736 30.6971 1.00008 30.3374C1.00343 29.9777 1.10802 29.6209 1.30907 29.3029L1.30913 29.3029L1.31567 29.2923L18.0325 2.10091L18.0326 2.10093L18.0365 2.09432C18.2314 1.77188 18.5188 1.49577 18.876 1.30055L18.3981 0.426159L18.876 1.30055C19.2335 1.10515 19.6444 0.999999 20.0663 0.999999C20.4881 0.999999 20.8991 1.10515 21.2566 1.30055C21.6138 1.49577 21.9012 1.77188 22.096 2.09433Z" stroke="white" stroke-width="2"/>
</svg>
