<svg width="25" height="21" viewBox="0 0 25 21" fill="none" xmlns="http://www.w3.org/2000/svg">
<path d="M10.655 20.0182L0.289919 3.09122C0.102389 2.79576 0.00234442 2.45902 3.84034e-05 2.11553C-0.0022657 1.77204 0.0932524 1.43416 0.276804 1.13653C0.460354 0.8389 0.72533 0.592232 1.04456 0.421818C1.3638 0.251406 1.7258 0.163378 2.09345 0.166761L22.9273 0.16676C23.2932 0.166821 23.6526 0.257357 23.9689 0.429171C24.2852 0.600987 24.5472 0.84796 24.7283 1.145C24.9094 1.44204 25.0031 1.77857 24.9999 2.1204C24.9967 2.46222 24.8967 2.79717 24.7101 3.09121L14.2621 20.0182C14.0813 20.3162 13.8191 20.5642 13.5023 20.7366C13.1854 20.9091 12.8253 21 12.4586 21C12.0919 21 11.7317 20.9091 11.4149 20.7366C11.098 20.5642 10.8358 20.3162 10.655 20.0182Z" fill="white"/>
</svg>
