<svg width="29" height="39" viewBox="0 0 29 39" fill="none" xmlns="http://www.w3.org/2000/svg">
<path d="M8.26147 2.67995V36.32C8.26147 37.0308 8.00357 37.7125 7.54451 38.2151C7.08545 38.7176 6.46283 39 5.81362 39H2.44784C1.79863 39 1.17602 38.7176 0.716956 38.2151C0.257897 37.7125 0 37.0308 0 36.32V2.67995C0 1.96918 0.257897 1.28753 0.716956 0.78494C1.17602 0.282351 1.79863 0 2.44784 0L5.81362 0C6.46283 0 7.08545 0.282351 7.54451 0.78494C8.00357 1.28753 8.26147 1.96918 8.26147 2.67995ZM26.2286 0H22.8628C22.2136 0 21.591 0.282351 21.132 0.78494C20.6729 1.28753 20.415 1.96918 20.415 2.67995V36.32C20.415 37.0308 20.6729 37.7125 21.132 38.2151C21.591 38.7176 22.2136 39 22.8628 39H26.2286C26.8778 39 27.5005 38.7176 27.9595 38.2151C28.4186 37.7125 28.6765 37.0308 28.6765 36.32V2.67995C28.6765 1.96918 28.4186 1.28753 27.9595 0.78494C27.5005 0.282351 26.8778 0 26.2286 0V0Z" fill="white"/>
</svg>
