<svg width="55" height="50" viewBox="0 0 55 50" fill="none" xmlns="http://www.w3.org/2000/svg">
<path d="M54.3398 41.095C54.3287 41.0455 54.3086 40.9983 54.2806 40.956L52.1182 36.9145L46.9344 27.213L40.625 15.4361L35.1746 5.28772C34.2958 3.64928 33.4862 1.95126 32.5383 0.322751V0.253241C32.491 0.166178 32.4183 0.0957391 32.3301 0.0513686C32.2418 0.0069982 32.1422 -0.00918345 32.0446 0.00499298C29.0824 0.0645726 26.1202 0.0645726 23.1581 0.00499298C23.0595 -0.000154339 22.9617 0.0245311 22.8772 0.0758624C22.7927 0.127194 22.7255 0.202814 22.6841 0.292961C21.96 1.61695 21.2327 2.96742 20.502 4.34437L15.2491 14.0757L8.87055 25.8228L3.40041 35.9414C2.51176 37.5798 1.57374 39.2183 0.73446 40.9064C0.731218 40.9294 0.731218 40.9528 0.73446 40.9759C0.710566 41.0203 0.690737 41.0668 0.675216 41.1149C0.653081 41.1877 0.646914 41.2645 0.657143 41.3399C0.667371 41.4153 0.69375 41.4876 0.73446 41.5518C2.30441 44.074 3.84474 46.6359 5.32582 49.2177C5.36139 49.2791 5.40831 49.333 5.46406 49.3766H5.5233H5.55292C5.59853 49.386 5.64555 49.386 5.69116 49.3766H43.8439C45.6014 49.3766 47.3689 49.4461 49.1264 49.3766H49.2647H49.393H49.4523C49.5136 49.3364 49.5645 49.2819 49.6004 49.2177C51.0815 46.6359 52.6218 44.074 54.1917 41.5518C54.2507 41.493 54.2949 41.4208 54.3206 41.3414C54.3464 41.262 54.353 41.1775 54.3398 41.095ZM2.67962 39.6651L3.86448 37.4805C5.60887 34.2301 7.35984 30.9864 9.1174 27.7492C11.2238 23.817 13.327 19.9079 15.4268 16.022C17.2568 12.6259 19.0867 9.24645 20.9167 5.88351C21.4598 4.89052 22.0127 3.89753 22.5656 2.90453V3.20243C22.4965 4.02846 22.4965 4.85888 22.5656 5.68491C22.81 6.45252 23.257 7.13896 23.8591 7.6709L25.5772 9.65688C25.8142 9.93492 26.0511 10.2626 26.3276 10.5307V12.5167C26.3275 12.6898 26.3945 12.856 26.5143 12.9803C26.6342 13.1045 26.7974 13.1768 26.9694 13.182V22.8438C26.6268 22.9994 26.3231 23.2301 26.0808 23.5191L24.3726 25.376C23.782 25.9113 23.2521 26.5107 22.7927 27.1633C22.5182 27.9462 22.4336 28.7837 22.5459 29.6061C22.5459 30.4303 22.5459 31.2545 22.5459 32.0687L13.1459 38.4338C13.0428 38.3142 12.9007 38.2355 12.745 38.2119C12.5894 38.1882 12.4305 38.2211 12.2968 38.3047L10.717 39.2977L10.4899 39.1984L7.97202 38.7317C7.18558 38.4779 6.37474 38.3082 5.55292 38.2253C4.73126 38.3601 3.95683 38.7017 3.30167 39.2183L2.67962 39.6651ZM34.5229 48.334H11.1317H7.87329L8.13001 48.1751C8.82944 47.8238 9.49117 47.4012 10.1048 46.914C10.5581 46.3395 10.8512 45.6541 10.9539 44.928C11.181 44.1137 11.418 43.2995 11.6451 42.4852C11.7537 42.1277 11.9018 41.7504 11.9808 41.3631L13.5409 40.3702C13.6168 40.3252 13.6831 40.2655 13.7358 40.1944C13.7884 40.1234 13.8265 40.0425 13.8476 39.9565C13.8688 39.8704 13.8726 39.781 13.859 39.6935C13.8453 39.6059 13.8144 39.522 13.768 39.4467V39.3871L23.2074 33.022C26.1696 32.9724 29.0627 32.9724 31.9853 33.022L41.2668 39.3672V39.4467C41.1776 39.6029 41.1494 39.787 41.1878 39.963C41.2384 40.1336 41.3467 40.2811 41.4939 40.3801L43.0836 41.3731C43.1231 41.5253 43.1626 41.6842 43.2021 41.8497C43.4391 42.664 43.676 43.4782 43.9031 44.2925C44.0474 45.062 44.2897 45.8096 44.6239 46.5168C45.1514 47.1229 45.8055 47.6043 46.5395 47.9268L47.2208 48.3439H34.5229V48.334ZM52.0195 39.4963C51.3638 39.023 50.6586 38.6234 49.9163 38.3047C49.1513 38.2008 48.3726 38.2825 47.6453 38.543L45.1769 39.0594C44.8708 39.119 44.5548 39.1686 44.2487 39.258L42.6788 38.265C42.6047 38.2179 42.5218 38.1865 42.4352 38.1729C42.3486 38.1592 42.2601 38.1635 42.1752 38.1856C42.0511 38.2165 41.9382 38.2819 41.8494 38.3742L32.637 32.0787C32.637 31.3538 32.637 30.6388 32.637 29.9139V28.8018C32.6669 28.4037 32.647 28.0033 32.5778 27.6102C32.2752 26.9143 31.8114 26.3014 31.225 25.8228L29.586 24.0354C29.2151 23.5282 28.7271 23.1192 28.1641 22.8438V13.1721C28.3362 13.1669 28.4994 13.0945 28.6192 12.9703C28.739 12.8461 28.806 12.6798 28.8059 12.5068V10.4513C28.8964 10.3668 28.9821 10.2772 29.0627 10.1832L30.84 8.10781C31.431 7.53985 31.9485 6.8993 32.3803 6.20127C32.6406 5.37063 32.7148 4.49232 32.5975 3.62942C32.5975 3.37124 32.5975 3.10313 32.5975 2.84495C32.9629 3.53012 33.3282 4.21528 33.7034 4.90045L38.8872 14.602L45.1966 26.3888L50.6273 36.5273C51.1703 37.5203 51.7035 38.6026 52.2466 39.6453L52.0195 39.4963Z" fill="white"/>
</svg>
