<svg width="25" height="21" viewBox="0 0 25 21" fill="none" xmlns="http://www.w3.org/2000/svg">
<path d="M14.2972 0.982458L24.6277 17.9204C24.8146 18.2161 24.9144 18.553 24.9167 18.8968C24.9189 19.2405 24.8237 19.5786 24.6408 19.8764C24.4579 20.1742 24.1938 20.4211 23.8756 20.5916C23.5574 20.7621 23.1966 20.8502 22.8302 20.8468H2.06576C1.70108 20.8467 1.34291 20.7561 1.02765 20.5842C0.712379 20.4123 0.451242 20.1652 0.270763 19.8679C0.0902846 19.5707 -0.00310593 19.2339 7.88093e-05 18.8919C0.00326355 18.5498 0.10291 18.2147 0.288896 17.9204L10.7021 0.982458C10.8823 0.684206 11.1436 0.436128 11.4594 0.263532C11.7752 0.0909365 12.1342 0 12.4996 0C12.8651 0 13.2241 0.0909365 13.5398 0.263532C13.8556 0.436128 14.117 0.684206 14.2972 0.982458Z" fill="white"/>
</svg>
