<svg width="42" height="35" viewBox="0 0 42 35" fill="none" xmlns="http://www.w3.org/2000/svg">
<g clip-path="url(#clip0_557_4939)">
<path d="M32.0213 2.17212C31.9329 2.09517 31.8277 2.03971 31.714 2.01011L31.3344 1.8541H31.2922L31.2079 1.8001H31.1596C30.5191 1.54181 29.863 1.32338 29.1952 1.14606L29.0627 1.10406C26.9187 0.474997 24.704 0.116177 22.4704 0.0359957C19.7708 -0.0360084 17.0472 0.0359957 14.3536 0.0659974C12.5627 0.053863 10.7724 0.13799 8.99063 0.318012C8.0618 0.398666 7.15738 0.657432 6.32722 1.08006C4.85514 1.94134 3.6468 3.18606 2.83224 4.68026H0.602686C0.495425 4.67964 0.38994 4.70753 0.297125 4.76107C0.204309 4.81461 0.127527 4.89185 0.0747072 4.98481C0.0218871 5.07777 -0.00505628 5.18308 -0.00334089 5.28988C-0.00162549 5.39668 0.0286865 5.50108 0.0844652 5.59231L3.17571 10.9266C3.22827 11.019 3.30448 11.0958 3.39658 11.1492C3.48868 11.2026 3.59337 11.2308 3.69996 11.2308C3.80655 11.2308 3.91124 11.2026 4.00334 11.1492C4.09544 11.0958 4.17165 11.019 4.22421 10.9266L7.32148 5.59231C7.37599 5.50077 7.40507 5.39645 7.40574 5.29003C7.40641 5.18361 7.37865 5.07893 7.32529 4.98671C7.27194 4.8945 7.19492 4.81808 7.10212 4.76528C7.00933 4.71248 6.9041 4.68521 6.79723 4.68626H4.98949C5.64887 3.74053 6.53827 2.9767 7.57457 2.46613C7.48418 2.50814 7.50828 2.46613 7.66495 2.43613L7.90599 2.35213C8.08676 2.29812 8.27356 2.25612 8.46036 2.21412C8.939 2.11555 9.42448 2.05337 9.91259 2.02811C11.9493 1.8661 14.0041 1.8661 16.0469 1.8421H18.1921C14.5079 3.3325 11.4512 6.04046 9.53601 9.51077C7.62078 12.9811 6.96372 17.0021 7.67528 20.8981C8.38684 24.794 10.4236 28.3272 13.4433 30.9038C16.4629 33.4804 20.2813 34.9433 24.2566 35.0465C28.2319 35.1498 32.1217 33.8871 35.2721 31.4708C38.4226 29.0545 40.6416 25.6318 41.5562 21.7782C42.4708 17.9245 42.0251 13.8748 40.2942 10.3098C38.5633 6.74474 35.6526 3.88177 32.0515 2.20212L32.0213 2.17212ZM31.2621 24.3074C30.1828 25.382 28.854 26.1749 27.3934 26.616C25.9328 27.057 24.3855 27.1324 22.8886 26.8356C21.3917 26.5389 19.9914 25.879 18.8118 24.9146C17.6322 23.9501 16.7098 22.7108 16.1261 21.3065C15.5425 19.9022 15.3157 18.3762 15.4659 16.8638C15.6161 15.3513 16.1386 13.8991 16.9871 12.6358C17.8356 11.3725 18.9839 10.3371 20.3304 9.62136C21.6768 8.90561 23.1797 8.5316 24.706 8.53248C24.9048 8.53248 25.0977 8.53248 25.3086 8.53248C27.088 8.64994 28.7958 9.27513 30.2279 10.3333C31.66 11.3915 32.7558 12.838 33.3843 14.4998C34.0128 16.1616 34.1475 17.9685 33.7722 19.7045C33.397 21.4406 32.5276 23.0322 31.2681 24.2894L31.2621 24.3074Z" fill="white"/>
</g>
<defs>
<clipPath id="clip0_557_4939">
<rect width="42" height="35" fill="white"/>
</clipPath>
</defs>
</svg>
