<svg width="31" height="28" viewBox="0 0 31 28" fill="none" xmlns="http://www.w3.org/2000/svg">
<path d="M5.38918 23.984C5.38918 24.2715 5.30096 24.5525 5.13568 24.7914C4.9704 25.0304 4.73548 25.2167 4.46063 25.3267C4.18578 25.4367 3.88334 25.4655 3.59157 25.4094C3.29979 25.3533 3.03177 25.2149 2.82141 25.0117C2.61105 24.8084 2.46779 24.5495 2.40975 24.2676C2.35171 23.9856 2.3815 23.6934 2.49535 23.4279C2.60919 23.1623 2.80199 22.9353 3.04934 22.7756C3.2967 22.6159 3.58752 22.5307 3.88501 22.5307C4.28394 22.5307 4.66653 22.6838 4.94862 22.9564C5.2307 23.2289 5.38918 23.5986 5.38918 23.984ZM31 5.58968V22.4103C31 23.1444 30.8504 23.8712 30.5596 24.5494C30.2689 25.2276 29.8427 25.8438 29.3055 26.3628C28.7683 26.8819 28.1306 27.2936 27.4287 27.5745C26.7268 27.8554 25.9745 28 25.2148 28H5.78524C5.02551 28 4.27322 27.8554 3.57133 27.5745C2.86943 27.2936 2.23167 26.8819 1.69446 26.3628C1.15725 25.8438 0.731111 25.2276 0.440375 24.5494C0.14964 23.8712 0 23.1444 0 22.4103L0 5.58968C0 4.1072 0.609515 2.68545 1.69446 1.63718C2.7794 0.588911 4.2509 0 5.78524 0L25.2148 0C26.7491 0 28.2206 0.588911 29.3055 1.63718C30.3905 2.68545 31 4.1072 31 5.58968ZM30.11 5.58968C30.11 4.33528 29.5942 3.13225 28.6762 2.24526C27.7582 1.35826 26.513 0.859951 25.2148 0.859951H5.78524C4.48695 0.859951 3.24184 1.35826 2.32381 2.24526C1.40578 3.13225 0.890037 4.33528 0.890037 5.58968V22.4103C0.890037 23.6647 1.40578 24.8677 2.32381 25.7547C3.24184 26.6417 4.48695 27.14 5.78524 27.14H25.2148C26.513 27.14 27.7582 26.6417 28.6762 25.7547C29.5942 24.8677 30.11 23.6647 30.11 22.4103V5.58968ZM3.88501 2.31757C3.58645 2.31672 3.29434 2.40148 3.04566 2.56113C2.79699 2.72077 2.60293 2.94812 2.48807 3.21439C2.3732 3.48066 2.34269 3.77387 2.4004 4.05691C2.4581 4.33994 2.60143 4.60006 2.81224 4.80434C3.02304 5.00863 3.29184 5.14788 3.58461 5.20447C3.87737 5.26106 4.18093 5.23245 4.45685 5.12225C4.73277 5.01206 4.96865 4.82523 5.13462 4.58544C5.30058 4.34564 5.38917 4.06366 5.38918 3.77518C5.38976 3.58397 5.35129 3.39452 5.27596 3.2177C5.20063 3.04088 5.08993 2.88016 4.95019 2.74475C4.81046 2.60934 4.64444 2.50191 4.46166 2.4286C4.27888 2.3553 4.08292 2.31757 3.88501 2.31757ZM23.3546 9.85934C23.8125 10.3019 24.0701 10.9018 24.0711 11.5276V16.4552C24.0701 17.0809 23.8125 17.6809 23.3546 18.1235L19.7499 21.6063C19.2903 22.0459 18.67 22.293 18.0233 22.2942H12.9278C12.2796 22.2937 11.6577 22.0466 11.1967 21.6063L7.59647 18.1235C7.13859 17.6809 6.88095 17.0809 6.87999 16.4552V11.5276C6.88095 10.9018 7.13859 10.3019 7.59647 9.85934L11.1967 6.37654C11.6508 5.9395 12.2646 5.69242 12.9055 5.68857H18.0233C18.6704 5.68789 19.2914 5.93531 19.7499 6.37654L23.3546 9.85934ZM19.3939 8.62101C18.3702 7.92985 17.1698 7.52346 15.9235 7.44613C14.6772 7.36881 13.4328 7.6235 12.326 8.18247C11.2192 8.74144 10.2925 9.58322 9.64677 10.6161C9.00106 11.6489 8.66118 12.8332 8.66417 14.0399C8.66715 15.2465 9.0129 16.4292 9.66371 17.4591C10.3145 18.4889 11.2454 19.3264 12.355 19.8803C13.4645 20.4341 14.7101 20.6831 15.956 20.6C17.2019 20.5169 18.4003 20.105 19.4206 19.4091C20.3144 18.7983 21.043 17.9888 21.545 17.0488C22.047 16.1089 22.3077 15.0661 22.3051 14.0084C22.3025 12.9506 22.0366 11.909 21.53 10.9714C21.0233 10.0338 20.2907 9.22766 19.3939 8.62101ZM26.9192 2.40356C26.6223 2.40357 26.332 2.48849 26.0849 2.64762C25.8379 2.80675 25.6451 3.03297 25.5308 3.29778C25.4166 3.56259 25.3861 3.85414 25.443 4.1357C25.5 4.41725 25.6419 4.67623 25.8509 4.87998C26.06 5.08373 26.3267 5.22316 26.6176 5.28068C26.9085 5.33821 27.2105 5.31126 27.4856 5.20324C27.7607 5.09521 27.9965 4.91095 28.1634 4.67365C28.3303 4.43636 28.4207 4.15665 28.4233 3.86978C28.4251 3.67784 28.3875 3.48747 28.3127 3.30966C28.2379 3.13184 28.1274 2.9701 27.9875 2.83378C27.8477 2.69746 27.6813 2.58925 27.4979 2.51541C27.3145 2.44157 27.1178 2.40356 26.9192 2.40356ZM26.9192 22.6124C26.621 22.6116 26.3292 22.6961 26.0808 22.8554C25.8323 23.0147 25.6382 23.2415 25.5231 23.5073C25.408 23.773 25.377 24.0658 25.434 24.3486C25.4909 24.6314 25.6334 24.8915 25.8433 25.0961C26.0532 25.3008 26.3212 25.4407 26.6134 25.4982C26.9055 25.5558 27.2088 25.5284 27.4849 25.4195C27.7609 25.3107 27.9974 25.1252 28.1645 24.8865C28.3315 24.6479 28.4216 24.3667 28.4233 24.0786C28.4251 23.8867 28.3875 23.6963 28.3127 23.5185C28.2379 23.3407 28.1274 23.1789 27.9875 23.0426C27.8477 22.9063 27.6813 22.7981 27.4979 22.7243C27.3145 22.6504 27.1178 22.6124 26.9192 22.6124Z" fill="white"/>
</svg>
