<svg width="17" height="35" viewBox="0 0 17 35" fill="none" xmlns="http://www.w3.org/2000/svg">
<g clip-path="url(#clip0_557_7200)">
<path d="M15.8069 19.8368L10.1368 16.5324L9.52493 16.1618C9.43793 16.1075 9.36606 16.0318 9.3161 15.9418C9.26614 15.8517 9.23974 15.7503 9.23939 15.6471V11.9206L15.1134 6.52647V0H1.85607V6.52647L7.73009 11.9206V15.6471C7.73046 16.0081 7.82487 16.3627 8.00387 16.6753C8.18286 16.9879 8.44014 17.2474 8.74989 17.4279L15.0522 21.1235C15.1934 21.2058 15.3102 21.3244 15.3909 21.4674C15.4715 21.6103 15.513 21.7723 15.5111 21.9368V25.8074C15.513 25.9718 15.4715 26.1338 15.3909 26.2768C15.3102 26.4197 15.1934 26.5384 15.0522 26.6206L8.93345 30.1721C8.79017 30.2532 8.62864 30.2958 8.46435 30.2958C8.30005 30.2958 8.13852 30.2532 7.99524 30.1721L1.87646 26.6206C1.73534 26.5384 1.61845 26.4197 1.5378 26.2768C1.45715 26.1338 1.41565 25.9718 1.41755 25.8074V22.4103C1.4544 22.1298 1.54813 21.86 1.6929 21.6176C1.81447 21.361 1.99233 21.1357 2.213 20.9588L6.80208 18.2721L7.02643 18.1382C7.10645 18.0148 7.14384 17.8682 7.13277 17.7211C7.12171 17.5741 7.06281 17.4348 6.96525 17.325C6.87996 17.1993 6.7659 17.0963 6.63276 17.0246C6.49961 16.9529 6.35129 16.9147 6.2004 16.9132L5.86387 17.1191L1.38696 19.7441C0.90563 19.9827 0.511884 20.3696 0.262588 20.8488C0.0132914 21.328 -0.0786514 21.8749 3.75472e-05 22.4103V29.0294C0.0373996 29.4823 0.180698 29.9198 0.418154 30.3059C0.623837 30.6264 0.88663 30.9056 1.1932 31.1294L7.31198 34.6809C7.67916 34.8902 8.09367 35.0001 8.51534 35.0001C8.937 35.0001 9.35151 34.8902 9.71869 34.6809L15.8375 31.1294C16.1943 30.918 16.4914 30.6177 16.7003 30.2572C16.9092 29.8967 17.023 29.4882 17.0306 29.0706V21.9368C17.0269 21.5092 16.9118 21.0901 16.697 20.7215C16.4823 20.353 16.1753 20.0478 15.8069 19.8368Z" fill="white"/>
</g>
<defs>
<clipPath id="clip0_557_7200">
<rect width="17" height="35" fill="white"/>
</clipPath>
</defs>
</svg>
