<svg width="29" height="39" viewBox="0 0 29 39" fill="none" xmlns="http://www.w3.org/2000/svg">
<path d="M27.307 23.0218L5.06862 38.4489C4.55476 38.8048 3.97205 38.9919 3.379 38.9915C2.78595 38.9912 2.20341 38.8033 1.68987 38.4468C1.17633 38.0903 0.749842 37.5777 0.453229 36.9604C0.156616 36.3432 0.000309607 35.643 0 34.9302L0 4.06959C0.000309607 3.3568 0.156616 2.65665 0.453229 2.03941C0.749842 1.42218 1.17633 0.909577 1.68987 0.553068C2.20341 0.196559 2.78595 0.00868371 3.379 0.00830137C3.97205 0.00791903 4.55476 0.195043 5.06862 0.55089L27.307 15.9843C27.8208 16.341 28.2475 16.854 28.5441 17.4716C28.8408 18.0893 28.9969 18.7899 28.9969 19.503C28.9969 20.2162 28.8408 20.9168 28.5441 21.5345C28.2475 22.1521 27.8208 22.6651 27.307 23.0218Z" fill="white"/>
</svg>
