<svg width="55" height="50" viewBox="0 0 55 50" fill="none" xmlns="http://www.w3.org/2000/svg">
<g filter="url(#filter0_d_557_4922)">
<path d="M31.4062 30.1702V14.3767C31.3834 13.4949 31.0217 12.657 30.398 12.0414C29.7743 11.4259 28.9379 11.0815 28.0672 11.0815C27.1964 11.0815 26.3601 11.4259 25.7364 12.0414C25.1126 12.657 24.7509 13.4949 24.7281 14.3767V30.0824C23.9647 30.7664 23.4206 31.6661 23.1658 32.6658C22.9111 33.6656 22.9573 34.7196 23.2986 35.6926C23.5717 36.4283 24.0108 37.0892 24.5808 37.6226C25.1509 38.1559 25.8361 38.5469 26.5818 38.7644C27.076 38.9178 27.5901 38.9956 28.1071 38.9954C29.1382 39.0016 30.1445 38.6748 30.9798 38.0623C31.57 37.6068 32.0554 37.027 32.4028 36.3629C32.7501 35.6989 32.951 34.9663 32.9915 34.2159C33.032 33.4655 32.9113 32.7151 32.6376 32.0166C32.3639 31.3181 31.9437 30.6881 31.4062 30.1702ZM32.0902 34.0712C32.0807 34.7045 31.9272 35.3272 31.6418 35.8908C31.3563 36.4543 30.9464 36.9437 30.444 37.3209C29.9302 37.6927 29.3378 37.9377 28.7139 38.0363C28.09 38.135 27.452 38.0845 26.8508 37.889C26.239 37.7127 25.6765 37.3938 25.2082 36.9579C24.7398 36.522 24.3787 35.9811 24.1536 35.3784C23.871 34.5712 23.836 33.6963 24.0533 32.8685C24.2706 32.0408 24.73 31.299 25.3711 30.7406C25.3872 30.7278 25.4017 30.7131 25.4144 30.6968C25.483 30.6566 25.5401 30.5991 25.5801 30.5299C25.62 30.4606 25.6415 30.382 25.6424 30.3018V14.3813C25.6617 13.7423 25.9259 13.136 26.379 12.6909C26.832 12.2458 27.4383 11.9969 28.0694 11.9969C28.7006 11.9969 29.3069 12.2458 29.7599 12.6909C30.213 13.136 30.4771 13.7423 30.4965 14.3813V30.2464C30.4764 30.3297 30.4796 30.4171 30.5058 30.4987C30.532 30.5803 30.5801 30.6528 30.6447 30.7083C31.124 31.1178 31.5034 31.6339 31.7534 32.2165C32.0034 32.799 32.1171 33.4322 32.0856 34.0666L32.0902 34.0712ZM30.6743 34.1428C30.6733 34.6279 30.54 35.1034 30.2891 35.5167C30.0382 35.93 29.6795 36.265 29.2525 36.4847C28.8255 36.7045 28.3469 36.8005 27.8694 36.7621C27.392 36.7237 26.9343 36.5524 26.5469 36.2671C26.1595 35.9818 25.8574 35.5937 25.674 35.1455C25.4907 34.6973 25.4331 34.2064 25.5077 33.7272C25.5823 33.2479 25.7862 32.7989 26.0968 32.4296C26.4074 32.0603 26.8128 31.7851 27.268 31.6345V19.7444C27.2684 19.6758 27.2768 19.6076 27.2931 19.5411C27.342 19.3431 27.4624 19.1708 27.6305 19.0584C27.6637 19.036 27.6988 19.0167 27.7354 19.0006L27.7719 18.9845L27.8426 18.9591L27.8882 18.9475L27.9543 18.9337H28.0045H28.0683C28.0903 18.9324 28.1124 18.9324 28.1344 18.9337H28.1846L28.2507 18.9498H28.2963L28.3693 18.9799C28.3819 18.9831 28.3941 18.9877 28.4057 18.9937C28.4424 19.0106 28.4775 19.0307 28.5106 19.0538C28.6224 19.1299 28.7135 19.2332 28.7757 19.3543C28.8378 19.4753 28.869 19.6102 28.8663 19.7467V31.6322C29.3898 31.8031 29.8464 32.1377 30.1704 32.588C30.4945 33.0382 30.6693 33.5809 30.6698 34.1381L30.6743 34.1428Z" fill="white"/>
</g>
<defs>
<filter id="filter0_d_557_4922" x="19" y="11" width="18" height="36" filterUnits="userSpaceOnUse" color-interpolation-filters="sRGB">
<feFlood flood-opacity="0" result="BackgroundImageFix"/>
<feColorMatrix in="SourceAlpha" type="matrix" values="0 0 0 0 0 0 0 0 0 0 0 0 0 0 0 0 0 0 127 0" result="hardAlpha"/>
<feOffset dy="4"/>
<feGaussianBlur stdDeviation="2"/>
<feComposite in2="hardAlpha" operator="out"/>
<feColorMatrix type="matrix" values="0 0 0 0 0 0 0 0 0 0 0 0 0 0 0 0 0 0 0.25 0"/>
<feBlend mode="normal" in2="BackgroundImageFix" result="effect1_dropShadow_557_4922"/>
<feBlend mode="normal" in="SourceGraphic" in2="effect1_dropShadow_557_4922" result="shape"/>
</filter>
</defs>
</svg>
