<svg width="42" height="42" viewBox="0 0 42 42" fill="none" xmlns="http://www.w3.org/2000/svg">
<g clip-path="url(#clip0_557_3057)">
<path d="M21 0C16.8466 0 12.7865 1.23163 9.33303 3.53914C5.8796 5.84665 3.18798 9.1264 1.59854 12.9636C0.00909901 16.8009 -0.406771 21.0233 0.403518 25.0969C1.21381 29.1705 3.21386 32.9123 6.15077 35.8492C9.08767 38.7861 12.8295 40.7862 16.9031 41.5965C20.9767 42.4068 25.1991 41.9909 29.0364 40.4015C32.8736 38.812 36.1534 36.1204 38.4609 32.667C40.7684 29.2135 42 25.1534 42 21C42 15.4305 39.7875 10.089 35.8492 6.15076C31.911 2.21249 26.5696 0 21 0V0ZM30.9428 17.0044C30.9176 17.0352 30.8896 17.0632 30.8616 17.0912C30.8336 17.1192 30.8056 17.1584 30.7748 17.1892L19.4572 28.5096C19.048 28.9165 18.4943 29.145 17.9172 29.145C17.3401 29.145 16.7864 28.9165 16.3772 28.5096L11.228 23.366C10.7513 22.8892 10.4835 22.2426 10.4835 21.5684C10.4835 20.8942 10.7513 20.2476 11.228 19.7708L11.2952 19.7064L11.3372 19.67C11.8192 19.22 12.4572 18.9749 13.1165 18.9864C13.7758 18.9979 14.4048 19.2651 14.8708 19.7316L17.8668 22.7332C17.8893 22.7551 17.9194 22.7673 17.9508 22.7673C17.9822 22.7673 18.0123 22.7551 18.0348 22.7332L27.1768 13.5968C27.2356 13.538 27.3 13.4792 27.3644 13.426C27.4288 13.3728 27.4792 13.3392 27.538 13.2972L27.566 13.2776C28.0605 12.9478 28.6551 12.8022 29.246 12.866C29.325 12.874 29.4035 12.8862 29.4812 12.9024L29.5372 12.9164C29.5988 12.9164 29.6604 12.9444 29.722 12.964L29.7892 12.9864L29.9572 13.048L30.0216 13.0788C30.0752 13.1012 30.1275 13.1264 30.1784 13.1544L30.2456 13.1936L30.3912 13.2804L30.4668 13.3392C30.5087 13.3666 30.549 13.3965 30.5872 13.4288C30.6348 13.468 30.6796 13.5072 30.7216 13.5492L30.772 13.594C30.8308 13.6528 30.884 13.7116 30.9372 13.776C30.9904 13.8404 31.0044 13.8656 31.038 13.9132L31.0828 13.972C31.1192 14.0252 31.15 14.0812 31.1808 14.1344L31.2088 14.182C31.2396 14.2408 31.2676 14.2996 31.2956 14.3584C31.3236 14.4172 31.2956 14.3892 31.3152 14.406C31.3427 14.4679 31.3661 14.5315 31.3852 14.5964L31.402 14.6384C31.4244 14.7112 31.4412 14.784 31.458 14.8568C31.4568 14.8642 31.4568 14.8718 31.458 14.8792C31.5359 15.2494 31.53 15.6324 31.4409 16.0001C31.3517 16.3678 31.1816 16.7109 30.9428 17.0044Z" fill="white"/>
</g>
<defs>
<clipPath id="clip0_557_3057">
<rect width="42" height="42" fill="white"/>
</clipPath>
</defs>
</svg>
