<svg width="42" height="35" viewBox="0 0 42 35" fill="none" xmlns="http://www.w3.org/2000/svg">
<g clip-path="url(#clip0_557_4882)">
<path d="M24.706 -3.67031e-06C20.6923 -0.00237651 16.8028 1.38497 13.7034 3.9244C10.6041 6.46383 8.48796 9.99732 7.71739 13.9196C6.94683 17.842 7.56983 21.909 9.47968 25.4242C11.3895 28.9394 14.4674 31.684 18.186 33.1879L16.0408 33.1579C13.9981 33.1579 11.9433 33.1579 9.90656 32.9719C9.41239 32.9475 8.92084 32.8853 8.43626 32.7859C8.24946 32.7439 8.06266 32.7019 7.88188 32.6479L7.64085 32.5639C7.48418 32.5159 7.46007 32.4919 7.55046 32.5339C6.51417 32.0233 5.62477 31.2595 4.96538 30.3137H6.77313C6.88292 30.32 6.99233 30.2961 7.0895 30.2449C7.18667 30.1936 7.26789 30.1168 7.32438 30.0229C7.38087 29.9289 7.41046 29.8214 7.40995 29.7119C7.40943 29.6024 7.37884 29.4951 7.32148 29.4017L4.21818 24.0734C4.16563 23.981 4.08941 23.9042 3.99731 23.8508C3.90521 23.7973 3.80053 23.7692 3.69393 23.7692C3.58734 23.7692 3.48266 23.7973 3.39056 23.8508C3.29846 23.9042 3.22224 23.981 3.16969 24.0734L0.0844652 29.4017C0.0286865 29.4929 -0.00162549 29.5973 -0.00334089 29.7041C-0.00505628 29.8109 0.0218871 29.9162 0.0747072 30.0092C0.127527 30.1021 0.204309 30.1794 0.297125 30.2329C0.38994 30.2865 0.495425 30.3144 0.602686 30.3137H2.83224C3.6468 31.8079 4.85514 33.0527 6.32722 33.9139C7.15738 34.3366 8.0618 34.5953 8.99063 34.676C10.7724 34.856 12.5627 34.9401 14.3536 34.928C17.0592 34.976 19.7769 35.03 22.4704 34.958C24.6848 34.8811 26.881 34.5304 29.0084 33.9139L29.141 33.8719C29.8088 33.6946 30.4648 33.4762 31.1054 33.2179H31.1536H31.232H31.2741L31.6538 33.0739C31.7674 33.0443 31.8726 32.9888 31.9611 32.9119C35.5737 31.2852 38.5153 28.472 40.2933 24.9432C42.0713 21.4144 42.5777 17.3845 41.7276 13.5283C40.8776 9.67206 38.7227 6.2238 35.6239 3.76099C32.5252 1.29818 28.6707 -0.0296104 24.706 -3.67031e-06ZM33.9556 17.833C33.8098 20.0696 32.8522 22.177 31.2612 23.7623C29.6702 25.3477 27.5545 26.3028 25.3086 26.4495C25.1097 26.4495 24.9169 26.4495 24.706 26.4495C22.8418 26.4524 21.02 25.8966 19.4774 24.8543C17.9349 23.812 16.7431 22.3315 16.0571 20.6055C15.3712 18.8794 15.2228 16.9878 15.6313 15.1766C16.0399 13.3655 16.9864 11.7187 18.3477 10.4506C19.709 9.18245 21.4221 8.35167 23.2641 8.06635C25.1061 7.78102 26.9917 8.05437 28.6755 8.85081C30.3594 9.64725 31.7635 10.9299 32.7052 12.5319C33.6469 14.1339 34.0826 15.9811 33.9556 17.833Z" fill="white"/>
</g>
<defs>
<clipPath id="clip0_557_4882">
<rect width="42" height="35" fill="white"/>
</clipPath>
</defs>
</svg>
