<svg width="24" height="24" viewBox="0 0 24 24" fill="none" xmlns="http://www.w3.org/2000/svg">
<g clip-path="url(#clip0_557_24)">
<path d="M12 13.7144C15.3137 13.7144 18 11.0281 18 7.71436C18 4.40065 15.3137 1.71436 12 1.71436C8.68629 1.71436 6 4.40065 6 7.71436C6 11.0281 8.68629 13.7144 12 13.7144Z" fill="white"/>
<path d="M0.0686031 22.4915C-0.0685397 21.3943 -0.0342539 19.8858 0.822889 18.5486C2.57146 15.7715 6.72003 15.7715 12.0343 15.7715C17.3486 15.7715 21.4629 15.7715 23.2457 18.5486C24.1029 19.8858 24.1029 21.3943 24 22.4915C15.9772 22.4915 8.02289 22.4915 0.0686031 22.4915Z" fill="white"/>
</g>
<defs>
<clipPath id="clip0_557_24">
<rect width="24" height="24" fill="white"/>
</clipPath>
</defs>
</svg>
