<svg width="21" height="25" viewBox="0 0 21 25" fill="none" xmlns="http://www.w3.org/2000/svg">
<path d="M0.981818 10.655L17.9088 0.28992C18.2042 0.102389 18.541 0.00234523 18.8845 3.92289e-05C19.228 -0.00226486 19.5658 0.0932532 19.8635 0.276805C20.1611 0.460355 20.4078 0.725331 20.5782 1.04456C20.7486 1.3638 20.8366 1.7258 20.8332 2.09345L20.8332 22.9273C20.8332 23.2932 20.7426 23.6526 20.5708 23.9689C20.399 24.2852 20.152 24.5472 19.855 24.7283C19.558 24.9094 19.2214 25.0031 18.8796 24.9999C18.5378 24.9967 18.2028 24.8967 17.9088 24.7101L0.981818 14.2621C0.683761 14.0813 0.435844 13.8191 0.263361 13.5023C0.0908769 13.1854 -5.32174e-07 12.8253 -5.48203e-07 12.4586C-5.64233e-07 12.0919 0.0908768 11.7317 0.26336 11.4149C0.435844 11.098 0.683761 10.8358 0.981818 10.655Z" fill="white"/>
</svg>
